# This file uses centimeters as units for non-parametric coordinates.

mtllib CardBoardBoxWhole.mtl
g default
v -1.665443 -1.377108 2.405856
v 1.665443 -1.377108 2.405856
v -1.613169 1.376072 2.330342
v 1.613169 1.376072 2.330342
v -1.613169 1.376072 -2.330342
v 1.613169 1.376072 -2.330342
v -1.665443 -1.377108 -2.405856
v 1.665443 -1.377108 -2.405856
v -1.585848 1.376072 2.290874
v 1.585848 1.376072 2.290874
v 1.585848 1.376072 -2.290874
v -1.585848 1.376072 -2.290874
v -1.637237 -1.311132 2.365109
v 1.637237 -1.311132 2.365109
v 1.637237 -1.311132 -2.365109
v -1.637237 -1.311132 -2.365109
v 1.613169 1.348389 2.330342
v -1.613169 1.348389 2.330342
v -1.613169 1.348389 -2.330342
v 1.613169 1.348389 -2.330342
v 1.613169 1.848097 3.966265
v -1.613169 1.848097 3.966265
v 1.613169 1.875780 3.966265
v -1.613169 1.875780 3.966265
v -3.249093 1.848097 2.330342
v -3.249093 1.848097 -2.330342
v -3.249093 1.875780 2.330342
v -3.249093 1.875780 -2.330342
v -1.613169 1.875780 -3.966265
v 1.613169 1.875780 -3.966265
v 1.613169 1.848097 -3.966265
v -1.613169 1.848097 -3.966265
v 3.249093 1.848097 -2.330342
v 3.249093 1.848097 2.330342
v 3.249093 1.875780 -2.330342
v 3.249093 1.875780 2.330342
v 1.588355 0.951891 2.307898
v -1.606789 0.951833 2.307720
v -1.606789 0.951833 -2.307720
v 1.599042 0.956832 -2.323112
v 1.542906 0.559896 2.266470
v -1.594949 0.559883 2.266392
v -1.594949 0.559883 -2.266392
v 1.573034 0.566731 -2.309800
v 1.523977 0.181515 2.249199
v -1.590019 0.181515 2.249199
v -1.590019 0.181515 -2.249199
v 1.562030 0.181005 -2.304168
v 1.546984 -0.197835 2.270153
v -1.596039 -0.197814 2.270175
v -1.596039 -0.197814 -2.270175
v 1.575477 -0.205009 -2.311092
v 1.600303 -0.587723 2.322808
v -1.615553 -0.587708 2.322733
v -1.615553 -0.587708 -2.322733
v 1.609318 -0.592009 -2.335630
v 1.634097 -0.982229 2.360574
v -1.634097 -0.982229 2.360574
v -1.634097 -0.982229 -2.360574
v 1.634097 -0.982229 -2.360574
v -1.604772 -0.923103 -2.318140
v 1.604729 -0.923142 -2.318220
v 1.604673 -0.923103 2.318140
v -1.604772 -0.923103 2.318140
v -1.585203 -0.533516 -2.275866
v 1.577095 -0.538641 -2.292072
v 1.565669 -0.533495 2.275802
v -1.585203 -0.533516 2.275866
v -1.568218 -0.150040 -2.227505
v 1.545660 -0.156847 -2.270532
v 1.515704 -0.150031 2.227448
v -1.568218 -0.150040 2.227505
v -1.563649 0.223217 -2.211106
v 1.535016 0.223727 -2.265144
v 1.497608 0.223217 2.211106
v -1.563649 0.223217 2.211106
v -1.569260 0.597437 -2.231196
v 1.548020 0.604613 -2.271726
v 1.519812 0.597437 2.231196
v -1.569260 0.597437 2.231196
v -1.580553 0.985408 -2.271641
v 1.573726 0.989923 -2.284738
v 1.564555 0.985428 2.271698
v -1.580553 0.985408 2.271641
vt 0.683896 0.267401
vt 0.506576 0.189267
vt 0.249645 0.927175
vt 0.641335 0.439203
vt 0.662258 0.264718
vt 0.366598 0.554946
vt 0.307243 0.393044
vt 0.207956 0.159200
vt 0.131067 0.000000
vt 0.559690 0.865755
vt 0.598115 0.691724
vt 0.619345 0.696551
vt 0.702736 0.006851
vt 0.000000 0.874920
vt 0.239087 0.923367
vt 0.870769 0.161623
vt 0.168893 0.447153
vt 0.227227 0.603427
vt 0.593907 0.815440
vt 0.073556 0.220483
vt 0.810102 0.014083
vt 0.302875 0.840330
vt 0.188809 0.439081
vt 0.249955 0.925692
vt 0.000310 0.873437
vt 0.247577 0.596917
vt 0.092867 0.211853
vt 0.322931 0.832767
vt 0.001474 0.175444
vt 0.042037 0.347281
vt 0.839346 0.340968
vt 0.000000 0.175792
vt 0.878493 0.086807
vt 0.763777 0.221023
vt 0.385085 0.426258
vt 0.877342 0.085823
vt 0.802563 0.225106
vt 0.671355 0.443822
vt 0.572981 0.906680
vt 0.801264 0.224326
vt 0.534926 0.252160
vt 0.513789 0.420579
vt 0.914720 0.000000
vt 0.000000 0.698306
vt 0.271688 0.835618
vt 0.092507 0.001334
vt 0.648751 0.534661
vt 0.556582 0.253747
vt 0.535357 0.423919
vt 0.457134 0.841980
vt 0.493501 0.671428
vt 0.578050 0.254867
vt 0.556806 0.427336
vt 0.478212 0.845752
vt 0.514487 0.675524
vt 0.598745 0.256462
vt 0.577459 0.430498
vt 0.498310 0.849761
vt 0.535270 0.679510
vt 0.619459 0.258922
vt 0.598198 0.433491
vt 0.518327 0.854413
vt 0.556130 0.683399
vt 0.640723 0.262046
vt 0.619730 0.436333
vt 0.538890 0.860049
vt 0.577068 0.687429
vt 0.188719 0.168643
vt 0.112591 0.010978
vt 0.287110 0.400318
vt 0.346561 0.562417
vt 0.169491 0.177517
vt 0.093922 0.021257
vt 0.266946 0.407970
vt 0.326486 0.570017
vt 0.150291 0.186101
vt 0.075489 0.031174
vt 0.247013 0.415596
vt 0.306806 0.577787
vt 0.131165 0.194575
vt 0.057351 0.040081
vt 0.227857 0.423167
vt 0.287502 0.584759
vt 0.112106 0.203142
vt 0.038890 0.048474
vt 0.208692 0.430918
vt 0.267954 0.590941
vt 0.821581 0.963697
vt 0.670056 0.443043
vt 0.772792 0.275141
vt 0.838874 0.871557
vt 0.842507 0.872457
vt 0.601467 0.778332
vt 0.783539 0.188634
vt 0.684822 0.271309
vt 0.906404 0.873470
vt 0.902201 0.618451
vt 0.912536 0.344141
vt 0.089218 0.428129
vt 0.995797 0.616908
vt 0.328813 0.351452
vt 0.472434 0.667412
vt 1.000000 0.871928
vt 0.526182 0.320120
vt 0.762626 0.220039
vt 0.043997 0.615681
vt 0.554079 0.000000
vt 0.469910 0.245314
vt 0.717558 0.000000
vt 0.690995 0.174551
vt 0.666002 0.613988
vt 0.000000 0.834540
vt 0.000718 0.019704
vt 0.032601 0.746792
vt 0.903408 0.707214
vt 0.896951 0.149610
vt 0.006047 0.082380
vt 0.225127 0.818184
vt 0.091788 0.000000
vt 0.269124 0.735559
vt 0.343185 0.917269
vt 0.736141 0.336514
vt 0.963505 0.215437
vt 0.040562 0.347629
vt 0.908493 0.437663
vt 0.732097 0.430036
vt 0.323505 0.000000
vt 0.662936 0.441754
vt 0.192486 0.126730
vt 0.375557 0.315997
vt 0.680908 0.007786
vt 0.580467 0.872164
vt 0.659233 0.008345
vt 0.637796 0.009718
vt 0.617147 0.009357
vt 0.596719 0.006847
vt 0.575601 0.002921
vt 0.435840 0.837843
vt 0.936623 0.510126
vt 0.689920 0.431731
vt 0.635651 0.602510
vt 0.882354 0.680905
vt 0.900851 0.707816
vt 0.667466 0.616169
vt 0.604024 0.777730
vt 0.837410 0.869376
vt 0.019449 0.056928
vt 0.342442 0.824128
vt 0.361501 0.816824
vt 0.381091 0.811513
vt 0.401785 0.807755
vt 0.422765 0.803590
vt 0.443834 0.799656
vt 0.000000 0.065772
vt 0.007522 0.082032
vt 0.342875 0.918752
vt 0.872068 0.162403
vt 0.087744 0.428477
vt 0.647452 0.533882
vt 0.683670 0.270325
vt 0.915872 0.000984
vt 0.000000 0.018370
vn 0.000000 0.113925 0.993489
vn 0.000000 0.113925 0.993489
vn -0.000005 0.105239 0.994447
vn -0.000005 0.105121 0.994459
vn 0.000000 1.000000 0.000000
vn 0.000000 1.000000 0.000000
vn 0.000000 1.000000 0.000000
vn 0.000000 1.000000 0.000000
vn -0.000913 0.097742 -0.995211
vn -0.000908 0.097835 -0.995202
vn 0.000000 0.113925 -0.993489
vn 0.000000 0.113925 -0.993489
vn 0.000000 -1.000000 0.000000
vn 0.000000 -1.000000 0.000000
vn 0.000000 -1.000000 0.000000
vn 0.000000 -1.000000 0.000000
vn 0.996864 0.079132 0.000000
vn 0.996864 0.079132 0.000000
vn 0.997035 0.076948 0.000431
vn 0.997033 0.076973 0.000426
vn -0.996864 0.079132 0.000000
vn -0.996864 0.079132 0.000000
vn -0.997932 0.064281 0.000000
vn -0.997932 0.064281 0.000000
vn 0.174676 0.977173 -0.120918
vn -0.174676 0.977173 -0.120918
vn 0.000000 1.000000 -0.000000
vn 0.000000 1.000000 -0.000000
vn -0.174676 0.977173 0.120918
vn 0.000000 1.000000 0.000000
vn 0.174676 0.977173 0.120918
vn 0.000000 1.000000 0.000000
vn 0.000009 0.049100 -0.998794
vn 0.000009 0.049100 -0.998794
vn 0.000009 0.074745 -0.997203
vn 0.000009 0.075869 -0.997118
vn -0.999075 0.042993 -0.000981
vn -0.999075 0.042993 -0.000981
vn -0.997788 0.066434 -0.002455
vn -0.997839 0.065667 -0.002407
vn 0.002046 0.032622 0.999466
vn 0.002046 0.032622 0.999466
vn 0.005167 0.050395 0.998716
vn 0.005104 0.050032 0.998735
vn 0.999908 0.013552 0.000000
vn 0.999908 0.013552 0.000000
vn 0.999782 0.020863 0.000000
vn 0.999782 0.020863 0.000000
vn 0.000000 0.000000 1.000000
vn 0.000000 0.000000 1.000000
vn 0.000000 0.000000 1.000000
vn 0.000000 0.000000 1.000000
vn -1.000000 0.000000 0.000000
vn -1.000000 0.000000 0.000000
vn -1.000000 0.000000 0.000000
vn -1.000000 0.000000 0.000000
vn 0.000000 0.000000 -1.000000
vn 0.000000 0.000000 -1.000000
vn 0.000000 0.000000 -1.000000
vn 0.000000 0.000000 -1.000000
vn 1.000000 0.000000 0.000000
vn 1.000000 0.000000 0.000000
vn 1.000000 0.000000 0.000000
vn 1.000000 0.000000 0.000000
vn 0.000000 -0.956377 0.292134
vn 0.000000 -0.956377 0.292134
vn 0.000000 -0.956377 0.292134
vn 0.000000 -0.956377 0.292134
vn 1.000000 0.000000 0.000000
vn 1.000000 0.000000 0.000000
vn 1.000000 0.000000 0.000000
vn 1.000000 0.000000 0.000000
vn 0.000000 0.956377 -0.292134
vn 0.000000 0.956377 -0.292134
vn -1.000000 0.000000 0.000000
vn -1.000000 0.000000 0.000000
vn -1.000000 0.000000 0.000000
vn -1.000000 0.000000 0.000000
vn -0.292134 -0.956377 0.000000
vn -0.292134 -0.956377 0.000000
vn -0.292134 -0.956377 0.000000
vn -0.292134 -0.956377 0.000000
vn -0.000003 0.000000 1.000000
vn -0.000003 0.000000 1.000000
vn -0.000003 0.000000 1.000000
vn -0.000003 0.000000 1.000000
vn 0.292134 0.956377 0.000000
vn 0.292134 0.956377 0.000000
vn -0.000003 0.000000 -1.000000
vn -0.000003 0.000000 -1.000000
vn -0.000003 0.000000 -1.000000
vn -0.000003 0.000000 -1.000000
vn 0.000000 0.956377 0.292134
vn 0.000000 0.956377 0.292134
vn 1.000000 0.000000 0.000000
vn 1.000000 0.000000 0.000000
vn 1.000000 0.000000 0.000000
vn 1.000000 0.000000 0.000000
vn 0.000000 -0.956377 -0.292134
vn 0.000000 -0.956377 -0.292134
vn 0.000000 -0.956377 -0.292134
vn 0.000000 -0.956377 -0.292134
vn -1.000000 0.000000 0.000000
vn -1.000000 0.000000 0.000000
vn -1.000000 0.000000 0.000000
vn -1.000000 0.000000 0.000000
vn 0.292134 -0.956377 0.000000
vn 0.292134 -0.956377 0.000000
vn 0.292134 -0.956377 0.000000
vn 0.292134 -0.956377 0.000000
vn 0.000003 0.000000 -1.000000
vn 0.000003 0.000000 -1.000000
vn 0.000003 0.000000 -1.000000
vn 0.000003 0.000000 -1.000000
vn -0.292134 0.956377 0.000000
vn -0.292134 0.956377 0.000000
vn 0.000003 0.000000 1.000000
vn 0.000003 0.000000 1.000000
vn 0.000003 0.000000 1.000000
vn 0.000003 0.000000 1.000000
vn -0.000033 -0.080265 0.996774
vn -0.000033 -0.079237 0.996856
vn -0.000027 -0.056733 0.998389
vn -0.000027 -0.056733 0.998389
vn -0.999743 -0.022683 0.000000
vn -0.999743 -0.022683 0.000000
vn -0.999871 -0.016086 0.000000
vn -0.999871 -0.016086 0.000000
vn -0.002362 -0.037827 -0.999282
vn -0.002362 -0.037827 -0.999282
vn -0.005579 -0.053026 -0.998578
vn -0.005648 -0.053352 -0.998560
vn 0.997609 -0.069060 0.002619
vn 0.997560 -0.069763 0.002672
vn 0.998780 -0.049375 0.001123
vn 0.998780 -0.049375 0.001123
vn -0.000026 -0.076459 0.997073
vn -0.000027 -0.077580 0.996986
vn -0.999753 -0.022223 0.000000
vn -0.999753 -0.022223 0.000000
vn -0.012147 -0.050601 -0.998645
vn -0.012211 -0.050207 -0.998664
vn 0.997746 -0.066859 0.005769
vn 0.997796 -0.066104 0.005815
vn -0.000004 0.004993 0.999988
vn -0.000004 0.005112 0.999987
vn -0.999999 0.001489 0.000000
vn -0.999999 0.001489 0.000000
vn -0.015325 0.003385 -0.999877
vn -0.015325 0.003340 -0.999877
vn 0.999963 0.004409 0.007342
vn 0.999964 0.004335 0.007342
vn -0.000002 0.096334 0.995349
vn -0.000002 0.097906 0.995196
vn -0.999411 0.034315 0.000000
vn -0.999411 0.034315 0.000000
vn -0.011466 0.069191 -0.997538
vn -0.011540 0.068523 -0.997583
vn 0.996615 0.082037 0.005447
vn 0.996694 0.081065 0.005498
vn -0.000009 0.113727 0.993512
vn -0.000009 0.112953 0.993600
vn -0.998831 0.048335 0.000000
vn -0.998831 0.048335 0.000000
vn -0.004870 0.088598 -0.996056
vn -0.004932 0.088783 -0.996039
vn 0.995802 0.091504 0.002286
vn 0.995748 0.092094 0.002333
vn 0.001169 -0.105034 0.994468
vn 0.001177 -0.104918 0.994480
vn 0.000012 -0.120074 0.992765
vn 0.000012 -0.120074 0.992765
vn -0.996416 -0.084584 -0.000551
vn -0.996415 -0.084599 -0.000559
vn -0.996503 -0.083560 -0.000006
vn -0.996503 -0.083560 -0.000006
vn -0.000005 -0.114370 -0.993438
vn -0.000004 -0.114471 -0.993427
vn 0.000000 -0.120169 -0.992754
vn 0.000000 -0.120169 -0.992754
vn 0.997677 -0.068124 0.000000
vn 0.997677 -0.068124 0.000000
vn 0.996518 -0.083374 0.000000
vn 0.996518 -0.083374 0.000000
vn 0.005636 -0.089317 0.995987
vn 0.005710 -0.089347 0.995984
vn -0.995474 -0.095001 -0.002660
vn -0.995442 -0.095335 -0.002713
vn -0.000014 -0.116139 -0.993233
vn -0.000014 -0.115768 -0.993276
vn 0.998872 -0.047482 0.000000
vn 0.998872 -0.047482 0.000000
vn 0.012252 -0.061369 0.998040
vn 0.012317 -0.060734 0.998078
vn -0.997216 -0.074339 -0.005839
vn -0.997285 -0.073405 -0.005881
vn -0.000014 -0.086241 -0.996274
vn -0.000014 -0.087751 -0.996142
vn 0.999567 -0.029427 0.000000
vn 0.999567 -0.029427 0.000000
vn 0.015380 0.003300 0.999876
vn 0.015380 0.003257 0.999876
vn -0.999963 0.004434 -0.007373
vn -0.999963 0.004355 -0.007373
vn -0.000005 0.005039 -0.999987
vn -0.000005 0.005159 -0.999987
vn 0.999999 0.001440 0.000000
vn 0.999999 0.001440 0.000000
vn 0.011612 0.052836 0.998536
vn 0.011684 0.052474 0.998554
vn -0.997514 0.070252 -0.005520
vn -0.997561 0.069580 -0.005569
vn 0.000005 0.079728 -0.996817
vn 0.000005 0.080737 -0.996736
vn 0.999745 0.022567 0.000000
vn 0.999745 0.022567 0.000000
s 1
g CardboardBox
usemtl CardboardBoxMat
f 1/1/1 2/128/2 57/4/3 58/5/4
s off
f 13/139/5 14/142/6 15/141/7 16/140/8
s 2
f 59/10/9 60/11/10 8/12/11 7/132/12
s off
f 7/129/13 8/127/14 2/2/15 1/130/16
s 3
f 2/128/17 8/12/18 60/11/19 57/4/20
s 4
f 7/13/21 1/1/22 58/5/23 59/131/24
s 5
f 3/115/25 4/91/26 10/146/27 9/143/28
f 4/91/26 6/93/29 11/145/30 10/146/27
f 6/93/29 5/111/31 12/144/32 11/145/30
f 5/111/31 3/115/25 9/143/28 12/144/32
s 6
f 9/18/33 10/17/34 83/23/35 84/26/36
s 7
f 10/17/37 11/20/38 82/27/39 83/23/40
s 8
f 11/20/41 12/154/42 81/147/43 82/27/44
s 9
f 12/22/45 9/18/46 84/26/47 81/28/48
s off
f 22/29/49 21/30/50 23/124/51 24/32/52
f 26/25/53 25/24/54 27/3/55 28/14/56
f 29/33/57 30/34/58 31/105/59 32/36/60
f 34/37/61 33/38/62 35/89/63 36/40/64
f 18/122/65 17/98/66 21/125/67 22/126/68
f 17/99/69 4/158/70 23/124/71 21/30/72
s 5
f 4/90/26 3/116/25 24/123/73 23/31/74
s off
f 3/117/75 18/155/76 22/29/77 24/32/78
f 19/106/79 18/120/80 25/118/81 26/44/82
f 18/121/83 3/156/84 27/3/85 25/24/86
s 5
f 3/15/25 5/112/31 28/114/87 27/45/88
s off
f 5/113/89 19/162/90 26/119/91 28/46/92
s 5
f 5/21/31 6/94/29 30/110/93 29/109/94
s off
f 6/95/95 20/160/96 31/105/97 30/34/98
f 20/101/99 19/108/100 32/104/101 31/35/102
f 19/43/103 5/161/104 29/33/105 32/36/106
f 17/100/107 20/103/108 33/96/109 34/97/110
f 20/47/111 6/159/112 35/89/113 33/38/114
s 5
f 6/19/29 4/92/26 36/88/115 35/39/116
s off
f 4/16/117 17/157/118 34/37/119 36/40/120
s 1
f 38/48/121 37/49/122 17/42/123 18/41/124
s 4
f 39/137/125 38/48/126 18/41/127 19/107/128
s 2
f 19/138/129 20/102/130 40/51/131 39/50/132
s 3
f 37/49/133 40/51/134 20/102/135 17/42/136
s 1
f 42/52/137 41/53/138 37/49/122 38/48/121
s 4
f 43/136/139 42/52/140 38/48/126 39/137/125
s 2
f 39/50/132 40/51/131 44/55/141 43/54/142
s 3
f 41/53/143 44/55/144 40/51/134 37/49/133
s 1
f 46/56/145 45/57/146 41/53/138 42/52/137
s 4
f 47/135/147 46/56/148 42/52/140 43/136/139
s 2
f 43/54/142 44/55/141 48/59/149 47/58/150
s 3
f 45/57/151 48/59/152 44/55/144 41/53/143
s 1
f 50/60/153 49/61/154 45/57/146 46/56/145
s 4
f 51/134/155 50/60/156 46/56/148 47/135/147
s 2
f 47/58/150 48/59/149 52/63/157 51/62/158
s 3
f 49/61/159 52/63/160 48/59/152 45/57/151
s 1
f 54/64/161 53/65/162 49/61/154 50/60/153
s 4
f 55/133/163 54/64/164 50/60/156 51/134/155
s 2
f 51/62/158 52/63/157 56/67/165 55/66/166
s 3
f 53/65/167 56/67/168 52/63/160 49/61/159
s 1
f 58/5/4 57/4/3 53/65/162 54/64/161
s 4
f 59/131/24 58/5/23 54/64/164 55/133/163
s 2
f 55/66/166 56/67/165 60/11/10 59/10/9
s 3
f 57/4/20 60/11/19 56/67/168 53/65/167
s 8
f 62/68/169 61/69/170 16/9/171 15/8/172
s 7
f 63/70/173 62/68/174 15/8/175 14/7/176
s 6
f 64/71/177 63/70/178 14/7/179 13/6/180
s 9
f 61/152/181 64/71/182 13/6/183 16/153/184
s 8
f 66/72/185 65/73/186 61/69/170 62/68/169
s 7
f 67/74/187 66/72/188 62/68/174 63/70/173
s 6
f 68/75/189 67/74/190 63/70/178 64/71/177
s 9
f 65/151/191 68/75/192 64/71/182 61/152/181
s 8
f 70/76/193 69/77/194 65/73/186 66/72/185
s 7
f 71/78/195 70/76/196 66/72/188 67/74/187
s 6
f 72/79/197 71/78/198 67/74/190 68/75/189
s 9
f 69/150/199 72/79/200 68/75/192 65/151/191
s 8
f 74/80/201 73/81/202 69/77/194 70/76/193
s 7
f 75/82/203 74/80/204 70/76/196 71/78/195
s 6
f 76/83/205 75/82/206 71/78/198 72/79/197
s 9
f 73/149/207 76/83/208 72/79/200 69/150/199
s 8
f 78/84/209 77/85/210 73/81/202 74/80/201
s 7
f 79/86/211 78/84/212 74/80/204 75/82/203
s 6
f 80/87/213 79/86/214 75/82/206 76/83/205
s 9
f 77/148/215 80/87/216 76/83/208 73/149/207
s 8
f 82/27/44 81/147/43 77/85/210 78/84/209
s 7
f 83/23/40 82/27/39 78/84/212 79/86/211
s 6
f 84/26/36 83/23/35 79/86/214 80/87/213
s 9
f 81/28/48 84/26/47 80/87/216 77/148/215
