<svg width="57" height="57" viewBox="0 0 57 57" fill="none" xmlns="http://www.w3.org/2000/svg">
<g filter="url(#filter0_d_1849_58701)">
<rect x="1" y="1.39844" width="50" height="50" rx="5" fill="white" shape-rendering="crispEdges"/>
<path d="M30.383 34.3101C30.3666 34.4384 28.8246 33.2695 27.1033 31.7583C26.2537 31.0124 25.0177 30.0394 24.1936 29.2775C23.1226 28.2874 22.2636 27.328 21.6167 26.3991C21.6167 26.0646 24.7621 23.1614 24.9967 22.9443C25.6623 22.3283 28.776 19.7639 29.162 19.4242C29.5049 19.1222 29.8512 18.8297 30.1962 18.5337C30.2196 18.5137 30.2451 18.4999 30.2767 18.4785" stroke="black" stroke-width="2.5" stroke-linecap="round" stroke-linejoin="round"/>
<rect x="1" y="1.39844" width="50" height="50" rx="5" stroke="black" shape-rendering="crispEdges"/>
</g>
<defs>
<filter id="filter0_d_1849_58701" x="0.5" y="0.898438" width="56" height="56" filterUnits="userSpaceOnUse" color-interpolation-filters="sRGB">
<feFlood flood-opacity="0" result="BackgroundImageFix"/>
<feColorMatrix in="SourceAlpha" type="matrix" values="0 0 0 0 0 0 0 0 0 0 0 0 0 0 0 0 0 0 127 0" result="hardAlpha"/>
<feOffset dx="5" dy="5"/>
<feComposite in2="hardAlpha" operator="out"/>
<feColorMatrix type="matrix" values="0 0 0 0 0 0 0 0 0 0 0 0 0 0 0 0 0 0 1 0"/>
<feBlend mode="normal" in2="BackgroundImageFix" result="effect1_dropShadow_1849_58701"/>
<feBlend mode="normal" in="SourceGraphic" in2="effect1_dropShadow_1849_58701" result="shape"/>
</filter>
</defs>
</svg>
