<svg width="167" height="59" viewBox="0 0 167 59" fill="none" xmlns="http://www.w3.org/2000/svg">
<rect x="6" y="6" width="155" height="46" rx="23" fill="white"/>
<path d="M23.78 35H30.78V37H21.44V23H23.78V35ZM38.227 26.68C39.1604 26.68 40.0204 26.9133 40.807 27.38C41.607 27.8467 42.2404 28.4867 42.707 29.3C43.1737 30.1 43.407 30.9733 43.407 31.92V32.62H35.427C35.5604 33.3933 35.907 34.0133 36.467 34.48C37.027 34.9467 37.6537 35.18 38.347 35.18C39.5337 35.18 40.367 34.6933 40.847 33.72L42.807 34.5C42.6337 34.9267 42.347 35.3467 41.947 35.76C41.547 36.1733 41.0404 36.5133 40.427 36.78C39.8137 37.0467 39.1204 37.18 38.347 37.18C37.4537 37.18 36.5937 36.9467 35.767 36.48C34.9404 36 34.2737 35.36 33.767 34.56C33.2737 33.7467 33.027 32.8667 33.027 31.92C33.027 30.9733 33.267 30.1 33.747 29.3C34.2404 28.5 34.887 27.8667 35.687 27.4C36.487 26.92 37.3337 26.68 38.227 26.68ZM38.227 28.68C37.5737 28.68 37.0004 28.88 36.507 29.28C36.027 29.68 35.6937 30.2067 35.507 30.86H40.987C40.6937 29.4067 39.7737 28.68 38.227 28.68ZM50.6141 28.92V34.4C50.6141 34.6667 50.6341 34.8467 50.6741 34.94C50.7274 35.0333 50.8274 35.08 50.9741 35.08H54.4741V37H50.9141C50.2207 37 49.6874 36.9067 49.3141 36.72C48.9407 36.52 48.6874 36.2333 48.5541 35.86C48.4207 35.4867 48.3541 35 48.3541 34.4V28.92H46.1541V27H48.3541V23.92H50.6141V27H54.4741V28.92H50.6141ZM60.7211 22.94C60.6011 23.4067 60.4478 23.9133 60.2611 24.46C60.0744 24.9933 59.8744 25.5333 59.6611 26.08C59.4478 26.6133 59.2278 27.1267 59.0011 27.62H56.8611C56.9544 27.22 57.0478 26.8067 57.1411 26.38C57.2344 25.9533 57.3211 25.5267 57.4011 25.1C57.4944 24.66 57.5744 24.24 57.6411 23.84C57.7211 23.44 57.7878 23.0667 57.8411 22.72H60.5811L60.7211 22.94ZM64.277 33.56C64.8104 34.8133 65.697 35.44 66.937 35.44C67.897 35.44 68.6037 35.34 69.057 35.14C69.5237 34.9267 69.757 34.6 69.757 34.16C69.757 33.76 69.5304 33.46 69.077 33.26C68.637 33.0467 67.897 32.8933 66.857 32.8C65.457 32.68 64.3904 32.34 63.657 31.78C62.937 31.22 62.577 30.54 62.577 29.74C62.577 29.1133 62.7837 28.5667 63.197 28.1C63.6237 27.6333 64.1904 27.28 64.897 27.04C65.6037 26.7867 66.3704 26.66 67.197 26.66C68.2904 26.66 69.2437 26.9 70.057 27.38C70.8704 27.8467 71.377 28.44 71.577 29.16L69.537 29.88C69.3504 29.4133 69.0104 29.08 68.517 28.88C68.0237 28.6667 67.5104 28.56 66.977 28.56C66.4037 28.56 65.917 28.6667 65.517 28.88C65.117 29.08 64.917 29.36 64.917 29.72C64.917 30.12 65.1037 30.42 65.477 30.62C65.8637 30.82 66.4704 30.9533 67.297 31.02C68.8704 31.1533 70.0637 31.5067 70.877 32.08C71.6904 32.64 72.097 33.34 72.097 34.18C72.097 35.2067 71.6504 35.9933 70.757 36.54C69.8637 37.0733 68.6637 37.34 67.157 37.34C64.4637 37.34 62.7904 36.2667 62.137 34.12L64.277 33.56ZM88.4511 32.78C88.7311 33.5933 89.1711 34.2067 89.7711 34.62C90.3844 35.02 91.0444 35.22 91.7511 35.22C92.3778 35.22 92.9244 35.0733 93.3911 34.78C93.8578 34.4867 94.0911 34.0667 94.0911 33.52C94.0911 33.1467 93.9911 32.84 93.7911 32.6C93.5911 32.36 93.3111 32.1467 92.9511 31.96C92.6044 31.76 91.9911 31.4533 91.1111 31.04C90.0444 30.5467 89.2244 30.1 88.6511 29.7C88.0778 29.2867 87.6644 28.86 87.4111 28.42C87.1578 27.9667 87.0311 27.4267 87.0311 26.8C87.0311 26.0133 87.2111 25.32 87.5711 24.72C87.9444 24.12 88.4711 23.6533 89.1511 23.32C89.8311 22.9733 90.6311 22.8 91.5511 22.8C92.3778 22.8 93.1111 22.9533 93.7511 23.26C94.3911 23.5667 94.9044 23.9667 95.2911 24.46C95.6911 24.94 95.9644 25.44 96.1111 25.96L94.1311 26.56C93.9578 26 93.6711 25.5667 93.2711 25.26C92.8711 24.9533 92.2978 24.8 91.5511 24.8C90.8311 24.8 90.2911 25.0067 89.9311 25.42C89.5711 25.82 89.3911 26.2733 89.3911 26.78C89.3911 27.18 89.4711 27.5133 89.6311 27.78C89.7911 28.0333 90.0178 28.2533 90.3111 28.44C90.6178 28.6133 91.0511 28.8133 91.6111 29.04C92.8244 29.5333 93.7578 29.9667 94.4111 30.34C95.0778 30.7133 95.5778 31.14 95.9111 31.62C96.2444 32.0867 96.4111 32.66 96.4111 33.34C96.4111 34.0867 96.2044 34.76 95.7911 35.36C95.3778 35.9467 94.7978 36.4067 94.0511 36.74C93.3044 37.0733 92.4444 37.24 91.4711 37.24C90.6044 37.24 89.8244 37.0533 89.1311 36.68C88.4378 36.3067 87.8644 35.8133 87.4111 35.2C86.9578 34.5867 86.6378 33.9267 86.4511 33.22L88.4511 32.78ZM108.258 35.02V37H104.998C103.958 37 103.185 36.7533 102.678 36.26C102.185 35.7533 101.938 35.0667 101.938 34.2V24.68C101.938 24.4133 101.911 24.2333 101.858 24.14C101.818 24.0467 101.725 24 101.578 24H98.8581V22H101.638C102.331 22 102.865 22.0667 103.238 22.2C103.625 22.3333 103.898 22.56 104.058 22.88C104.218 23.2 104.298 23.64 104.298 24.2V33.74C104.298 34.1667 104.371 34.4867 104.518 34.7C104.678 34.9133 104.925 35.02 105.258 35.02H108.258ZM115.805 25.1C115.378 25.1 115.012 24.9467 114.705 24.64C114.398 24.3333 114.245 23.9667 114.245 23.54C114.245 23.1133 114.398 22.7533 114.705 22.46C115.012 22.1533 115.378 22 115.805 22C116.232 22 116.592 22.1533 116.885 22.46C117.192 22.7533 117.345 23.1133 117.345 23.54C117.345 23.9667 117.192 24.3333 116.885 24.64C116.592 24.9467 116.232 25.1 115.805 25.1ZM120.605 35V37H111.185V35H114.665V28.92H111.505V27H115.645C116.058 27 116.358 27.0467 116.545 27.14C116.745 27.22 116.872 27.3467 116.925 27.52C116.978 27.6933 117.005 27.94 117.005 28.26V35H120.605ZM131.252 30.04C130.812 29.5067 130.406 29.1467 130.032 28.96C129.659 28.7733 129.179 28.68 128.592 28.68C128.032 28.68 127.519 28.8333 127.052 29.14C126.599 29.4467 126.239 29.8533 125.972 30.36C125.706 30.8533 125.572 31.3733 125.572 31.92C125.572 32.48 125.712 33.0133 125.992 33.52C126.272 34.0133 126.652 34.4133 127.132 34.72C127.612 35.0267 128.132 35.18 128.692 35.18C129.292 35.18 129.812 35.06 130.252 34.82C130.692 34.58 131.132 34.24 131.572 33.8L133.032 35.14C132.619 35.6867 132.006 36.1667 131.192 36.58C130.392 36.98 129.559 37.18 128.692 37.18C127.772 37.18 126.892 36.9467 126.052 36.48C125.212 36 124.532 35.36 124.012 34.56C123.492 33.7467 123.232 32.8667 123.232 31.92C123.232 30.9733 123.486 30.1 123.992 29.3C124.499 28.4867 125.166 27.8467 125.992 27.38C126.819 26.9 127.686 26.6667 128.592 26.68C129.472 26.6933 130.286 26.88 131.032 27.24C131.792 27.6 132.399 28.1333 132.852 28.84L131.252 30.04ZM140.219 26.68C141.153 26.68 142.013 26.9133 142.799 27.38C143.599 27.8467 144.233 28.4867 144.699 29.3C145.166 30.1 145.399 30.9733 145.399 31.92V32.62H137.419C137.553 33.3933 137.899 34.0133 138.459 34.48C139.019 34.9467 139.646 35.18 140.339 35.18C141.526 35.18 142.359 34.6933 142.839 33.72L144.799 34.5C144.626 34.9267 144.339 35.3467 143.939 35.76C143.539 36.1733 143.033 36.5133 142.419 36.78C141.806 37.0467 141.113 37.18 140.339 37.18C139.446 37.18 138.586 36.9467 137.759 36.48C136.933 36 136.266 35.36 135.759 34.56C135.266 33.7467 135.019 32.8667 135.019 31.92C135.019 30.9733 135.259 30.1 135.739 29.3C136.233 28.5 136.879 27.8667 137.679 27.4C138.479 26.92 139.326 26.68 140.219 26.68ZM140.219 28.68C139.566 28.68 138.993 28.88 138.499 29.28C138.019 29.68 137.686 30.2067 137.499 30.86H142.979C142.686 29.4067 141.766 28.68 140.219 28.68Z" fill="black"/>
<path d="M32.2176 2C66.5103 3.3214 100.886 2 135.194 2C151.837 2 163.653 14.6255 164.748 22.185C165.844 29.7444 168.439 51.189 142.253 54.519C116.067 57.849 47.2084 57.3025 33.7704 55.9108C20.3324 54.519 2.49707 51.4509 2.49707 29.7444C2.49707 8.03787 18.8575 2.6801 21.7936 2.6801" stroke="#E6C654" stroke-width="3" stroke-linecap="round" stroke-linejoin="round"/>
</svg>
