<svg width="155" height="49" viewBox="0 0 155 49" fill="none" xmlns="http://www.w3.org/2000/svg">
<path d="M30.255 20.7168H28.005V28.0668H30.255V29.7168H24V28.0668H26.25V20.7168H24V19.2168H30.255V20.7168ZM36.4403 21.9468C37.6503 21.9468 38.5253 22.2818 39.0653 22.9518C39.6053 23.6218 39.8753 24.5068 39.8753 25.6068V29.7168H38.1203V26.2068C38.1203 25.4168 38.0403 24.8118 37.8803 24.3918C37.7303 23.9718 37.5203 23.6918 37.2503 23.5518C36.9903 23.4118 36.6553 23.3418 36.2453 23.3418C35.6653 23.3418 35.2203 23.5918 34.9103 24.0918C34.6003 24.5818 34.4453 25.3368 34.4453 26.3568V29.7168H32.6903V22.0818H34.4453C34.4453 22.4418 34.4303 22.6918 34.4003 22.8318C34.3703 22.9618 34.3003 23.1568 34.1903 23.4168L34.2953 23.4618C34.4953 23.0218 34.7853 22.6618 35.1653 22.3818C35.5453 22.0918 35.9703 21.9468 36.4403 21.9468ZM43.3005 27.1368C43.7005 28.0768 44.3655 28.5468 45.2955 28.5468C46.0155 28.5468 46.5455 28.4718 46.8855 28.3218C47.2355 28.1618 47.4105 27.9168 47.4105 27.5868C47.4105 27.2868 47.2405 27.0618 46.9005 26.9118C46.5705 26.7518 46.0155 26.6368 45.2355 26.5668C44.1855 26.4768 43.3855 26.2218 42.8355 25.8018C42.2955 25.3818 42.0255 24.8718 42.0255 24.2718C42.0255 23.8018 42.1805 23.3918 42.4905 23.0418C42.8105 22.6918 43.2355 22.4268 43.7655 22.2468C44.2955 22.0568 44.8705 21.9618 45.4905 21.9618C46.3105 21.9618 47.0255 22.1418 47.6355 22.5018C48.2455 22.8518 48.6255 23.2968 48.7755 23.8368L47.2455 24.3768C47.1055 24.0268 46.8505 23.7768 46.4805 23.6268C46.1105 23.4668 45.7255 23.3868 45.3255 23.3868C44.8955 23.3868 44.5305 23.4668 44.2305 23.6268C43.9305 23.7768 43.7805 23.9868 43.7805 24.2568C43.7805 24.5568 43.9205 24.7818 44.2005 24.9318C44.4905 25.0818 44.9455 25.1818 45.5655 25.2318C46.7455 25.3318 47.6405 25.5968 48.2505 26.0268C48.8605 26.4468 49.1655 26.9718 49.1655 27.6018C49.1655 28.3718 48.8305 28.9618 48.1605 29.3718C47.4905 29.7718 46.5905 29.9718 45.4605 29.9718C43.4405 29.9718 42.1855 29.1668 41.6955 27.5568L43.3005 27.1368ZM54.6158 23.6568V27.7668C54.6158 27.9668 54.6308 28.1018 54.6608 28.1718C54.7008 28.2418 54.7758 28.2768 54.8858 28.2768H57.5108V29.7168H54.8408C54.3208 29.7168 53.9208 29.6468 53.6408 29.5068C53.3608 29.3568 53.1708 29.1418 53.0708 28.8618C52.9708 28.5818 52.9208 28.2168 52.9208 27.7668V23.6568H51.2708V22.2168H52.9208V19.9068H54.6158V22.2168H57.5108V23.6568H54.6158ZM64.2961 21.7968C64.8361 21.7968 65.3361 21.9168 65.7961 22.1568C66.2661 22.3968 66.6411 22.7418 66.9211 23.1918C67.2111 23.6318 67.3561 24.1468 67.3561 24.7368L65.6461 24.9768C65.6161 24.4068 65.4461 23.9718 65.1361 23.6718C64.8361 23.3718 64.4611 23.2218 64.0111 23.2218C63.3811 23.2218 62.8811 23.4318 62.5111 23.8518C62.1511 24.2718 61.9711 24.9818 61.9711 25.9818V29.7768H60.2161V22.0968H61.9711C61.9711 22.4368 61.9561 22.7168 61.9261 22.9368C61.8961 23.1568 61.8461 23.3768 61.7761 23.5968L61.8661 23.6418C62.0761 23.1118 62.3861 22.6718 62.7961 22.3218C63.2061 21.9718 63.7061 21.7968 64.2961 21.7968ZM74.6514 29.7168H76.4064H74.6514ZM76.4064 22.2168V29.7168H74.6514C74.6514 29.4968 74.6914 29.2468 74.7714 28.9668C74.8614 28.6768 74.9764 28.3918 75.1164 28.1118L75.0264 28.0668C74.7364 28.6068 74.3864 29.0418 73.9764 29.3718C73.5764 29.6918 73.0714 29.8518 72.4614 29.8518C71.3714 29.8518 70.5564 29.5518 70.0164 28.9518C69.4864 28.3518 69.2214 27.5318 69.2214 26.4918V22.2168H70.9764V26.1918C70.9764 26.8818 71.0814 27.4268 71.2914 27.8268C71.5114 28.2268 71.8564 28.4268 72.3264 28.4268C73.8764 28.4268 74.6514 27.3768 74.6514 25.2768V22.2168H76.4064ZM84.3766 24.4968C84.0466 24.0968 83.7416 23.8268 83.4616 23.6868C83.1816 23.5468 82.8216 23.4768 82.3816 23.4768C81.9616 23.4768 81.5766 23.5918 81.2266 23.8218C80.8866 24.0518 80.6166 24.3568 80.4166 24.7368C80.2166 25.1068 80.1166 25.4968 80.1166 25.9068C80.1166 26.3268 80.2216 26.7268 80.4316 27.1068C80.6416 27.4768 80.9266 27.7768 81.2866 28.0068C81.6466 28.2368 82.0366 28.3518 82.4566 28.3518C82.9066 28.3518 83.2966 28.2618 83.6266 28.0818C83.9566 27.9018 84.2866 27.6468 84.6166 27.3168L85.7116 28.3218C85.4016 28.7318 84.9416 29.0918 84.3316 29.4018C83.7316 29.7018 83.1066 29.8518 82.4566 29.8518C81.7666 29.8518 81.1066 29.6768 80.4766 29.3268C79.8466 28.9668 79.3366 28.4868 78.9466 27.8868C78.5566 27.2768 78.3616 26.6168 78.3616 25.9068C78.3616 25.1968 78.5516 24.5418 78.9316 23.9418C79.3116 23.3318 79.8116 22.8518 80.4316 22.5018C81.0516 22.1418 81.7016 21.9668 82.3816 21.9768C83.0416 21.9868 83.6516 22.1268 84.2116 22.3968C84.7816 22.6668 85.2366 23.0668 85.5766 23.5968L84.3766 24.4968ZM91.2369 23.6568V27.7668C91.2369 27.9668 91.2519 28.1018 91.2819 28.1718C91.3219 28.2418 91.3969 28.2768 91.5069 28.2768H94.1319V29.7168H91.4619C90.9419 29.7168 90.5419 29.6468 90.2619 29.5068C89.9819 29.3568 89.7919 29.1418 89.6919 28.8618C89.5919 28.5818 89.5419 28.2168 89.5419 27.7668V23.6568H87.8919V22.2168H89.5419V19.9068H91.2369V22.2168H94.1319V23.6568H91.2369ZM100.257 20.7918C99.9372 20.7918 99.6622 20.6768 99.4322 20.4468C99.2022 20.2168 99.0872 19.9418 99.0872 19.6218C99.0872 19.3018 99.2022 19.0318 99.4322 18.8118C99.6622 18.5818 99.9372 18.4668 100.257 18.4668C100.577 18.4668 100.847 18.5818 101.067 18.8118C101.297 19.0318 101.412 19.3018 101.412 19.6218C101.412 19.9418 101.297 20.2168 101.067 20.4468C100.847 20.6768 100.577 20.7918 100.257 20.7918ZM103.857 28.2168V29.7168H96.7922V28.2168H99.4022V23.6568H97.0322V22.2168H100.137C100.447 22.2168 100.672 22.2518 100.812 22.3218C100.962 22.3818 101.057 22.4768 101.097 22.6068C101.137 22.7368 101.157 22.9218 101.157 23.1618V28.2168H103.857ZM109.547 29.8518C108.827 29.8518 108.172 29.6768 107.582 29.3268C107.002 28.9768 106.542 28.5018 106.202 27.9018C105.872 27.2918 105.707 26.6268 105.707 25.9068C105.707 25.1868 105.872 24.5268 106.202 23.9268C106.542 23.3268 107.002 22.8518 107.582 22.5018C108.172 22.1518 108.827 21.9768 109.547 21.9768C110.257 21.9768 110.902 22.1518 111.482 22.5018C112.072 22.8518 112.532 23.3268 112.862 23.9268C113.202 24.5268 113.372 25.1868 113.372 25.9068C113.372 26.6268 113.202 27.2918 112.862 27.9018C112.532 28.5018 112.072 28.9768 111.482 29.3268C110.902 29.6768 110.257 29.8518 109.547 29.8518ZM109.547 28.3218C109.957 28.3218 110.322 28.2168 110.642 28.0068C110.962 27.7868 111.207 27.4918 111.377 27.1218C111.557 26.7518 111.647 26.3468 111.647 25.9068C111.647 25.4668 111.557 25.0668 111.377 24.7068C111.207 24.3368 110.962 24.0468 110.642 23.8368C110.322 23.6168 109.957 23.5068 109.547 23.5068C109.137 23.5068 108.767 23.6168 108.437 23.8368C108.117 24.0468 107.867 24.3368 107.687 24.7068C107.517 25.0668 107.432 25.4668 107.432 25.9068C107.432 26.3468 107.517 26.7518 107.687 27.1218C107.867 27.4918 108.117 27.7868 108.437 28.0068C108.767 28.2168 109.137 28.3218 109.547 28.3218ZM118.838 21.9468C120.048 21.9468 120.923 22.2818 121.463 22.9518C122.003 23.6218 122.273 24.5068 122.273 25.6068V29.7168H120.518V26.2068C120.518 25.4168 120.438 24.8118 120.278 24.3918C120.128 23.9718 119.918 23.6918 119.648 23.5518C119.388 23.4118 119.053 23.3418 118.643 23.3418C118.063 23.3418 117.618 23.5918 117.308 24.0918C116.998 24.5818 116.843 25.3368 116.843 26.3568V29.7168H115.088V22.0818H116.843C116.843 22.4418 116.828 22.6918 116.798 22.8318C116.768 22.9618 116.698 23.1568 116.588 23.4168L116.693 23.4618C116.893 23.0218 117.183 22.6618 117.563 22.3818C117.943 22.0918 118.368 21.9468 118.838 21.9468ZM125.698 27.1368C126.098 28.0768 126.763 28.5468 127.693 28.5468C128.413 28.5468 128.943 28.4718 129.283 28.3218C129.633 28.1618 129.808 27.9168 129.808 27.5868C129.808 27.2868 129.638 27.0618 129.298 26.9118C128.968 26.7518 128.413 26.6368 127.633 26.5668C126.583 26.4768 125.783 26.2218 125.233 25.8018C124.693 25.3818 124.423 24.8718 124.423 24.2718C124.423 23.8018 124.578 23.3918 124.888 23.0418C125.208 22.6918 125.633 22.4268 126.163 22.2468C126.693 22.0568 127.268 21.9618 127.888 21.9618C128.708 21.9618 129.423 22.1418 130.033 22.5018C130.643 22.8518 131.023 23.2968 131.173 23.8368L129.643 24.3768C129.503 24.0268 129.248 23.7768 128.878 23.6268C128.508 23.4668 128.123 23.3868 127.723 23.3868C127.293 23.3868 126.928 23.4668 126.628 23.6268C126.328 23.7768 126.178 23.9868 126.178 24.2568C126.178 24.5568 126.318 24.7818 126.598 24.9318C126.888 25.0818 127.343 25.1818 127.963 25.2318C129.143 25.3318 130.038 25.5968 130.648 26.0268C131.258 26.4468 131.563 26.9718 131.563 27.6018C131.563 28.3718 131.228 28.9618 130.558 29.3718C129.888 29.7718 128.988 29.9718 127.858 29.9718C125.838 29.9718 124.583 29.1668 124.093 27.5568L125.698 27.1368Z" fill="#F6F5EE"/>
<path d="M35.6135 1.71289C63.6761 2.79422 91.8061 1.71289 119.881 1.71289C133.501 1.71289 143.17 12.0447 144.067 18.2307C144.963 24.4168 147.087 41.9654 125.658 44.6904C104.23 47.4154 47.8809 46.9683 36.8842 45.8294C25.8876 44.6905 11.2925 42.1798 11.2925 24.4168C11.2925 6.65383 24.6806 2.26943 27.0833 2.26943" stroke="#E6C654" stroke-width="3" stroke-linecap="round" stroke-linejoin="round"/>
</svg>
