<svg width="155" height="49" viewBox="0 0 155 49" fill="none" xmlns="http://www.w3.org/2000/svg">
<path d="M61.5 15H60.5C59.9 15 59.5 15.4 59.5 16C59.5 16.6 59.9 17 60.5 17H61.5C62.6 17 63.5 17.9 63.5 19V20.1C63.5 20.7 63.9 21.1 64.5 21.1C65.1 21.1 65.5 20.7 65.5 20.1V19C65.5 16.8 63.7 15 61.5 15ZM64.5 27C63.9 27 63.5 27.4 63.5 28V29C63.5 30.1 62.6 31 61.5 31H60.5C59.9 31 59.5 31.4 59.5 32C59.5 32.6 59.9 33 60.5 33H61.5C63.7 33 65.5 31.2 65.5 29V28C65.5 27.4 65.1 27 64.5 27ZM52.5 31H51.5C50.4 31 49.5 30.1 49.5 29V28C49.5 27.4 49.1 27 48.5 27C47.9 27 47.5 27.4 47.5 28V29C47.5 31.2 49.3 33 51.5 33H52.5C53.1 33 53.5 32.6 53.5 32C53.5 31.4 53.1 31 52.5 31ZM48.5 21C49.1 21 49.5 20.6 49.5 20V19C49.5 17.9 50.4 17 51.5 17H52.5C53.1 17 53.5 16.6 53.5 16C53.5 15.4 53.1 15 52.5 15H51.5C49.3 15 47.5 16.8 47.5 19V20C47.5 20.5 47.9 21 48.5 21ZM64.5 23H48.5C47.9 23 47.5 23.4 47.5 24C47.5 24.6 47.9 25 48.5 25H64.5C65.1 25 65.5 24.6 65.5 24C65.5 23.4 65.1 23 64.5 23Z" fill="#F6F5EE"/>
<path d="M75.81 26.835C76.02 27.445 76.35 27.905 76.8 28.215C77.26 28.515 77.755 28.665 78.285 28.665C78.755 28.665 79.165 28.555 79.515 28.335C79.865 28.115 80.04 27.8 80.04 27.39C80.04 27.11 79.965 26.88 79.815 26.7C79.665 26.52 79.455 26.36 79.185 26.22C78.925 26.07 78.465 25.84 77.805 25.53C77.005 25.16 76.39 24.825 75.96 24.525C75.53 24.215 75.22 23.895 75.03 23.565C74.84 23.225 74.745 22.82 74.745 22.35C74.745 21.76 74.88 21.24 75.15 20.79C75.43 20.34 75.825 19.99 76.335 19.74C76.845 19.48 77.445 19.35 78.135 19.35C78.755 19.35 79.305 19.465 79.785 19.695C80.265 19.925 80.65 20.225 80.94 20.595C81.24 20.955 81.445 21.33 81.555 21.72L80.07 22.17C79.94 21.75 79.725 21.425 79.425 21.195C79.125 20.965 78.695 20.85 78.135 20.85C77.595 20.85 77.19 21.005 76.92 21.315C76.65 21.615 76.515 21.955 76.515 22.335C76.515 22.635 76.575 22.885 76.695 23.085C76.815 23.275 76.985 23.44 77.205 23.58C77.435 23.71 77.76 23.86 78.18 24.03C79.09 24.4 79.79 24.725 80.28 25.005C80.78 25.285 81.155 25.605 81.405 25.965C81.655 26.315 81.78 26.745 81.78 27.255C81.78 27.815 81.625 28.32 81.315 28.77C81.005 29.21 80.57 29.555 80.01 29.805C79.45 30.055 78.805 30.18 78.075 30.18C77.425 30.18 76.84 30.04 76.32 29.76C75.8 29.48 75.37 29.11 75.03 28.65C74.69 28.19 74.45 27.695 74.31 27.165L75.81 26.835ZM89.6003 24.78C89.2703 24.38 88.9653 24.11 88.6853 23.97C88.4053 23.83 88.0453 23.76 87.6053 23.76C87.1853 23.76 86.8003 23.875 86.4503 24.105C86.1103 24.335 85.8403 24.64 85.6403 25.02C85.4403 25.39 85.3403 25.78 85.3403 26.19C85.3403 26.61 85.4453 27.01 85.6553 27.39C85.8653 27.76 86.1503 28.06 86.5103 28.29C86.8703 28.52 87.2603 28.635 87.6803 28.635C88.1303 28.635 88.5203 28.545 88.8503 28.365C89.1803 28.185 89.5103 27.93 89.8403 27.6L90.9353 28.605C90.6253 29.015 90.1653 29.375 89.5553 29.685C88.9553 29.985 88.3303 30.135 87.6803 30.135C86.9903 30.135 86.3303 29.96 85.7003 29.61C85.0703 29.25 84.5603 28.77 84.1703 28.17C83.7803 27.56 83.5853 26.9 83.5853 26.19C83.5853 25.48 83.7753 24.825 84.1553 24.225C84.5353 23.615 85.0353 23.135 85.6553 22.785C86.2753 22.425 86.9253 22.25 87.6053 22.26C88.2653 22.27 88.8753 22.41 89.4353 22.68C90.0053 22.95 90.4603 23.35 90.8003 23.88L89.6003 24.78ZM96.0255 22.2C96.7355 22.2 97.3905 22.335 97.9905 22.605C98.5905 22.865 99.0705 23.255 99.4305 23.775C99.7905 24.285 99.9705 24.895 99.9705 25.605V29.97H98.2155C98.2255 29.61 98.2705 29.285 98.3505 28.995C98.4405 28.705 98.4955 28.53 98.5155 28.47L98.4555 28.44C98.3055 28.97 98.0255 29.39 97.6155 29.7C97.2055 30 96.6005 30.15 95.8005 30.15C94.8205 30.15 94.0555 29.91 93.5055 29.43C92.9655 28.94 92.6955 28.3 92.6955 27.51C92.6955 26.57 92.9455 25.9 93.4455 25.5C93.9455 25.09 94.7455 24.885 95.8455 24.885C96.5055 24.885 97.0505 25.03 97.4805 25.32C97.9205 25.61 98.2355 26.025 98.4255 26.565L98.5005 26.535C98.4805 26.485 98.4405 26.395 98.3805 26.265C98.3305 26.125 98.2905 25.99 98.2605 25.86C98.2305 25.72 98.2155 25.585 98.2155 25.455C98.2155 24.765 98.0155 24.29 97.6155 24.03C97.2155 23.76 96.6805 23.625 96.0105 23.625C95.5905 23.625 95.2405 23.695 94.9605 23.835C94.6905 23.975 94.4655 24.185 94.2855 24.465L93.0105 23.61C93.2205 23.17 93.5605 22.825 94.0305 22.575C94.5105 22.325 95.1755 22.2 96.0255 22.2ZM96.0555 28.8C97.4555 28.8 98.1755 28.365 98.2155 27.495C98.2055 27.125 98.0455 26.825 97.7355 26.595C97.4355 26.355 96.8505 26.235 95.9805 26.235C95.4905 26.235 95.1105 26.36 94.8405 26.61C94.5805 26.85 94.4505 27.16 94.4505 27.54C94.4505 27.92 94.5855 28.225 94.8555 28.455C95.1355 28.685 95.5355 28.8 96.0555 28.8ZM105.751 22.23C106.961 22.23 107.836 22.565 108.376 23.235C108.916 23.905 109.186 24.79 109.186 25.89V30H107.431V26.49C107.431 25.7 107.351 25.095 107.191 24.675C107.041 24.255 106.831 23.975 106.561 23.835C106.301 23.695 105.966 23.625 105.556 23.625C104.976 23.625 104.531 23.875 104.221 24.375C103.911 24.865 103.756 25.62 103.756 26.64V30H102.001V22.365H103.756C103.756 22.725 103.741 22.975 103.711 23.115C103.681 23.245 103.611 23.44 103.501 23.7L103.606 23.745C103.806 23.305 104.096 22.945 104.476 22.665C104.856 22.375 105.281 22.23 105.751 22.23Z" fill="#F6F5EE"/>
<path d="M35.6135 1.99609C63.6761 3.07743 91.8061 1.99609 119.881 1.99609C133.501 1.99609 143.17 12.3279 144.067 18.5139C144.963 24.7 147.087 42.2486 125.658 44.9736C104.23 47.6986 47.8809 47.2515 36.8842 46.1126C25.8876 44.9737 11.2925 42.463 11.2925 24.7C11.2925 6.93703 24.6806 2.55263 27.0833 2.55263" stroke="#E6C654" stroke-width="3" stroke-linecap="round" stroke-linejoin="round"/>
</svg>
