<svg width="108" height="53" viewBox="0 0 108 53" fill="none" xmlns="http://www.w3.org/2000/svg">
<g filter="url(#filter0_d_1829_58676)">
<rect x="1" y="1" width="101" height="46" rx="5" fill="white" shape-rendering="crispEdges"/>
<path d="M26.8835 31.9117C26.8671 32.0399 25.3251 30.871 23.6038 29.3598C22.7542 28.614 21.5182 27.6409 20.6941 26.879C19.6231 25.889 18.7641 24.9295 18.1172 24.0007C18.1172 23.6661 21.2626 20.763 21.4972 20.5459C22.1628 19.9298 25.2765 17.3655 25.6625 17.0257C26.0054 16.7238 26.3517 16.4312 26.6967 16.1353C26.72 16.1152 26.7456 16.1015 26.7771 16.0801" stroke="black" stroke-width="2.5" stroke-linecap="round" stroke-linejoin="round"/>
<path d="M42.7828 24.82C44.2495 24.9 45.3428 25.2 46.0628 25.72C46.7828 26.2267 47.1428 27.04 47.1428 28.16C47.1428 29.3867 46.7028 30.3333 45.8228 31C44.9561 31.6667 43.6028 32 41.7628 32H37.1428V18H40.6428C42.5761 18 43.9828 18.34 44.8628 19.02C45.7561 19.6867 46.2028 20.54 46.2028 21.58C46.2028 22.58 45.9495 23.3333 45.4428 23.84C44.9361 24.3333 44.0495 24.6333 42.7828 24.74V24.82ZM39.4828 20V23.86H41.6028C42.3228 23.86 42.8761 23.6933 43.2628 23.36C43.6495 23.0133 43.8428 22.5 43.8428 21.82C43.8428 21.14 43.6028 20.6667 43.1228 20.4C42.6561 20.1333 41.8295 20 40.6428 20H39.4828ZM41.3628 30C42.5495 30 43.4161 29.8733 43.9628 29.62C44.5095 29.3533 44.7828 28.8267 44.7828 28.04C44.7828 27.5467 44.6228 27.1267 44.3028 26.78C43.9828 26.42 43.5761 26.1533 43.0828 25.98C42.5895 25.8067 42.0961 25.72 41.6028 25.72H39.4828V30H41.3628ZM53.7098 21.6C54.6565 21.6 55.5298 21.78 56.3298 22.14C57.1298 22.4867 57.7698 23.0067 58.2498 23.7C58.7298 24.38 58.9698 25.1933 58.9698 26.14V31.96H56.6298C56.6432 31.48 56.7032 31.0467 56.8098 30.66C56.9298 30.2733 57.0032 30.04 57.0298 29.96L56.9498 29.92C56.7498 30.6267 56.3765 31.1867 55.8298 31.6C55.2832 32 54.4765 32.2 53.4098 32.2C52.1032 32.2 51.0832 31.88 50.3498 31.24C49.6298 30.5867 49.2698 29.7333 49.2698 28.68C49.2698 27.4267 49.6032 26.5333 50.2698 26C50.9365 25.4533 52.0032 25.18 53.4698 25.18C54.3498 25.18 55.0765 25.3733 55.6498 25.76C56.2365 26.1467 56.6565 26.7 56.9098 27.42L57.0098 27.38C56.9832 27.3133 56.9298 27.1933 56.8498 27.02C56.7832 26.8333 56.7298 26.6533 56.6898 26.48C56.6498 26.2933 56.6298 26.1133 56.6298 25.94C56.6298 25.02 56.3632 24.3867 55.8298 24.04C55.2965 23.68 54.5832 23.5 53.6898 23.5C53.1298 23.5 52.6632 23.5933 52.2898 23.78C51.9298 23.9667 51.6298 24.2467 51.3898 24.62L49.6898 23.48C49.9698 22.8933 50.4232 22.4333 51.0498 22.1C51.6898 21.7667 52.5765 21.6 53.7098 21.6ZM53.7498 30.4C55.6165 30.4 56.5765 29.82 56.6298 28.66C56.6165 28.1667 56.4032 27.7667 55.9898 27.46C55.5898 27.14 54.8098 26.98 53.6498 26.98C52.9965 26.98 52.4898 27.1467 52.1298 27.48C51.7832 27.8 51.6098 28.2133 51.6098 28.72C51.6098 29.2267 51.7898 29.6333 52.1498 29.94C52.5232 30.2467 53.0565 30.4 53.7498 30.4ZM69.5569 25.04C69.1169 24.5067 68.7102 24.1467 68.3369 23.96C67.9635 23.7733 67.4835 23.68 66.8969 23.68C66.3369 23.68 65.8235 23.8333 65.3569 24.14C64.9035 24.4467 64.5435 24.8533 64.2769 25.36C64.0102 25.8533 63.8769 26.3733 63.8769 26.92C63.8769 27.48 64.0169 28.0133 64.2969 28.52C64.5769 29.0133 64.9569 29.4133 65.4369 29.72C65.9169 30.0267 66.4369 30.18 66.9969 30.18C67.5969 30.18 68.1169 30.06 68.5569 29.82C68.9969 29.58 69.4369 29.24 69.8769 28.8L71.3369 30.14C70.9235 30.6867 70.3102 31.1667 69.4969 31.58C68.6969 31.98 67.8635 32.18 66.9969 32.18C66.0769 32.18 65.1969 31.9467 64.3569 31.48C63.5169 31 62.8369 30.36 62.3169 29.56C61.7969 28.7467 61.5369 27.8667 61.5369 26.92C61.5369 25.9733 61.7902 25.1 62.2969 24.3C62.8035 23.4867 63.4702 22.8467 64.2969 22.38C65.1235 21.9 65.9902 21.6667 66.8969 21.68C67.7769 21.6933 68.5902 21.88 69.3369 22.24C70.0969 22.6 70.7035 23.1333 71.1569 23.84L69.5569 25.04ZM80.9039 32L77.3439 27.08L76.4239 27.94V32H74.1439V17.02H76.4239V25.3L80.0239 22H82.8239L78.8639 25.68L83.4639 32H80.9039Z" fill="black"/>
<rect x="1" y="1" width="101" height="46" rx="5" stroke="black" shape-rendering="crispEdges"/>
</g>
<defs>
<filter id="filter0_d_1829_58676" x="0.5" y="0.5" width="107" height="52" filterUnits="userSpaceOnUse" color-interpolation-filters="sRGB">
<feFlood flood-opacity="0" result="BackgroundImageFix"/>
<feColorMatrix in="SourceAlpha" type="matrix" values="0 0 0 0 0 0 0 0 0 0 0 0 0 0 0 0 0 0 127 0" result="hardAlpha"/>
<feOffset dx="5" dy="5"/>
<feComposite in2="hardAlpha" operator="out"/>
<feColorMatrix type="matrix" values="0 0 0 0 0 0 0 0 0 0 0 0 0 0 0 0 0 0 1 0"/>
<feBlend mode="normal" in2="BackgroundImageFix" result="effect1_dropShadow_1829_58676"/>
<feBlend mode="normal" in="SourceGraphic" in2="effect1_dropShadow_1829_58676" result="shape"/>
</filter>
</defs>
</svg>
