<svg width="167" height="59" viewBox="0 0 167 59" fill="none" xmlns="http://www.w3.org/2000/svg">
<rect x="5.54004" y="6" width="155" height="46" rx="23" fill="white"/>
<path d="M23.32 35H30.32V37H20.98V23H23.32V35ZM37.7671 26.68C38.7004 26.68 39.5604 26.9133 40.3471 27.38C41.1471 27.8467 41.7804 28.4867 42.2471 29.3C42.7137 30.1 42.9471 30.9733 42.9471 31.92V32.62H34.9671C35.1004 33.3933 35.4471 34.0133 36.0071 34.48C36.5671 34.9467 37.1937 35.18 37.8871 35.18C39.0737 35.18 39.9071 34.6933 40.3871 33.72L42.3471 34.5C42.1737 34.9267 41.8871 35.3467 41.4871 35.76C41.0871 36.1733 40.5804 36.5133 39.9671 36.78C39.3537 37.0467 38.6604 37.18 37.8871 37.18C36.9937 37.18 36.1337 36.9467 35.3071 36.48C34.4804 36 33.8137 35.36 33.3071 34.56C32.8137 33.7467 32.5671 32.8667 32.5671 31.92C32.5671 30.9733 32.8071 30.1 33.2871 29.3C33.7804 28.5 34.4271 27.8667 35.2271 27.4C36.0271 26.92 36.8737 26.68 37.7671 26.68ZM37.7671 28.68C37.1137 28.68 36.5404 28.88 36.0471 29.28C35.5671 29.68 35.2337 30.2067 35.0471 30.86H40.5271C40.2337 29.4067 39.3137 28.68 37.7671 28.68ZM50.1541 28.92V34.4C50.1541 34.6667 50.1741 34.8467 50.2141 34.94C50.2674 35.0333 50.3674 35.08 50.5141 35.08H54.0141V37H50.4541C49.7608 37 49.2274 36.9067 48.8541 36.72C48.4808 36.52 48.2274 36.2333 48.0941 35.86C47.9608 35.4867 47.8941 35 47.8941 34.4V28.92H45.6941V27H47.8941V23.92H50.1541V27H54.0141V28.92H50.1541ZM60.2611 22.94C60.1411 23.4067 59.9878 23.9133 59.8011 24.46C59.6145 24.9933 59.4145 25.5333 59.2011 26.08C58.9878 26.6133 58.7678 27.1267 58.5411 27.62H56.4011C56.4945 27.22 56.5878 26.8067 56.6811 26.38C56.7745 25.9533 56.8611 25.5267 56.9411 25.1C57.0345 24.66 57.1145 24.24 57.1811 23.84C57.2611 23.44 57.3278 23.0667 57.3811 22.72H60.1211L60.2611 22.94ZM63.8171 33.56C64.3504 34.8133 65.2371 35.44 66.4771 35.44C67.4371 35.44 68.1437 35.34 68.5971 35.14C69.0637 34.9267 69.2971 34.6 69.2971 34.16C69.2971 33.76 69.0704 33.46 68.6171 33.26C68.1771 33.0467 67.4371 32.8933 66.3971 32.8C64.9971 32.68 63.9304 32.34 63.1971 31.78C62.4771 31.22 62.1171 30.54 62.1171 29.74C62.1171 29.1133 62.3237 28.5667 62.7371 28.1C63.1637 27.6333 63.7304 27.28 64.4371 27.04C65.1437 26.7867 65.9104 26.66 66.7371 26.66C67.8304 26.66 68.7837 26.9 69.5971 27.38C70.4104 27.8467 70.9171 28.44 71.1171 29.16L69.0771 29.88C68.8904 29.4133 68.5504 29.08 68.0571 28.88C67.5637 28.6667 67.0504 28.56 66.5171 28.56C65.9437 28.56 65.4571 28.6667 65.0571 28.88C64.6571 29.08 64.4571 29.36 64.4571 29.72C64.4571 30.12 64.6437 30.42 65.0171 30.62C65.4037 30.82 66.0104 30.9533 66.8371 31.02C68.4104 31.1533 69.6037 31.5067 70.4171 32.08C71.2304 32.64 71.6371 33.34 71.6371 34.18C71.6371 35.2067 71.1904 35.9933 70.2971 36.54C69.4037 37.0733 68.2037 37.34 66.6971 37.34C64.0037 37.34 62.3304 36.2667 61.6771 34.12L63.8171 33.56ZM87.9911 32.78C88.2711 33.5933 88.7111 34.2067 89.3111 34.62C89.9245 35.02 90.5845 35.22 91.2911 35.22C91.9178 35.22 92.4645 35.0733 92.9311 34.78C93.3978 34.4867 93.6311 34.0667 93.6311 33.52C93.6311 33.1467 93.5311 32.84 93.3311 32.6C93.1311 32.36 92.8511 32.1467 92.4911 31.96C92.1445 31.76 91.5311 31.4533 90.6511 31.04C89.5845 30.5467 88.7645 30.1 88.1911 29.7C87.6178 29.2867 87.2045 28.86 86.9511 28.42C86.6978 27.9667 86.5711 27.4267 86.5711 26.8C86.5711 26.0133 86.7511 25.32 87.1111 24.72C87.4845 24.12 88.0111 23.6533 88.6911 23.32C89.3711 22.9733 90.1711 22.8 91.0911 22.8C91.9178 22.8 92.6511 22.9533 93.2911 23.26C93.9311 23.5667 94.4445 23.9667 94.8311 24.46C95.2311 24.94 95.5045 25.44 95.6511 25.96L93.6711 26.56C93.4978 26 93.2111 25.5667 92.8111 25.26C92.4111 24.9533 91.8378 24.8 91.0911 24.8C90.3711 24.8 89.8311 25.0067 89.4711 25.42C89.1111 25.82 88.9311 26.2733 88.9311 26.78C88.9311 27.18 89.0111 27.5133 89.1711 27.78C89.3311 28.0333 89.5578 28.2533 89.8511 28.44C90.1578 28.6133 90.5911 28.8133 91.1511 29.04C92.3645 29.5333 93.2978 29.9667 93.9511 30.34C94.6178 30.7133 95.1178 31.14 95.4511 31.62C95.7845 32.0867 95.9511 32.66 95.9511 33.34C95.9511 34.0867 95.7445 34.76 95.3311 35.36C94.9178 35.9467 94.3378 36.4067 93.5911 36.74C92.8445 37.0733 91.9845 37.24 91.0111 37.24C90.1445 37.24 89.3645 37.0533 88.6711 36.68C87.9778 36.3067 87.4045 35.8133 86.9511 35.2C86.4978 34.5867 86.1778 33.9267 85.9911 33.22L87.9911 32.78ZM107.798 35.02V37H104.538C103.498 37 102.725 36.7533 102.218 36.26C101.725 35.7533 101.478 35.0667 101.478 34.2V24.68C101.478 24.4133 101.451 24.2333 101.398 24.14C101.358 24.0467 101.265 24 101.118 24H98.3982V22H101.178C101.871 22 102.405 22.0667 102.778 22.2C103.165 22.3333 103.438 22.56 103.598 22.88C103.758 23.2 103.838 23.64 103.838 24.2V33.74C103.838 34.1667 103.911 34.4867 104.058 34.7C104.218 34.9133 104.465 35.02 104.798 35.02H107.798ZM115.345 25.1C114.919 25.1 114.552 24.9467 114.245 24.64C113.939 24.3333 113.785 23.9667 113.785 23.54C113.785 23.1133 113.939 22.7533 114.245 22.46C114.552 22.1533 114.919 22 115.345 22C115.772 22 116.132 22.1533 116.425 22.46C116.732 22.7533 116.885 23.1133 116.885 23.54C116.885 23.9667 116.732 24.3333 116.425 24.64C116.132 24.9467 115.772 25.1 115.345 25.1ZM120.145 35V37H110.725V35H114.205V28.92H111.045V27H115.185C115.599 27 115.899 27.0467 116.085 27.14C116.285 27.22 116.412 27.3467 116.465 27.52C116.519 27.6933 116.545 27.94 116.545 28.26V35H120.145ZM130.792 30.04C130.352 29.5067 129.946 29.1467 129.572 28.96C129.199 28.7733 128.719 28.68 128.132 28.68C127.572 28.68 127.059 28.8333 126.592 29.14C126.139 29.4467 125.779 29.8533 125.512 30.36C125.246 30.8533 125.112 31.3733 125.112 31.92C125.112 32.48 125.252 33.0133 125.532 33.52C125.812 34.0133 126.192 34.4133 126.672 34.72C127.152 35.0267 127.672 35.18 128.232 35.18C128.832 35.18 129.352 35.06 129.792 34.82C130.232 34.58 130.672 34.24 131.112 33.8L132.572 35.14C132.159 35.6867 131.546 36.1667 130.732 36.58C129.932 36.98 129.099 37.18 128.232 37.18C127.312 37.18 126.432 36.9467 125.592 36.48C124.752 36 124.072 35.36 123.552 34.56C123.032 33.7467 122.772 32.8667 122.772 31.92C122.772 30.9733 123.026 30.1 123.532 29.3C124.039 28.4867 124.706 27.8467 125.532 27.38C126.359 26.9 127.226 26.6667 128.132 26.68C129.012 26.6933 129.826 26.88 130.572 27.24C131.332 27.6 131.939 28.1333 132.392 28.84L130.792 30.04ZM139.759 26.68C140.693 26.68 141.553 26.9133 142.339 27.38C143.139 27.8467 143.773 28.4867 144.239 29.3C144.706 30.1 144.939 30.9733 144.939 31.92V32.62H136.959C137.093 33.3933 137.439 34.0133 137.999 34.48C138.559 34.9467 139.186 35.18 139.879 35.18C141.066 35.18 141.899 34.6933 142.379 33.72L144.339 34.5C144.166 34.9267 143.879 35.3467 143.479 35.76C143.079 36.1733 142.573 36.5133 141.959 36.78C141.346 37.0467 140.653 37.18 139.879 37.18C138.986 37.18 138.126 36.9467 137.299 36.48C136.473 36 135.806 35.36 135.299 34.56C134.806 33.7467 134.559 32.8667 134.559 31.92C134.559 30.9733 134.799 30.1 135.279 29.3C135.773 28.5 136.419 27.8667 137.219 27.4C138.019 26.92 138.866 26.68 139.759 26.68ZM139.759 28.68C139.106 28.68 138.533 28.88 138.039 29.28C137.559 29.68 137.226 30.2067 137.039 30.86H142.519C142.226 29.4067 141.306 28.68 139.759 28.68Z" fill="black"/>
<path d="M31.7576 2C66.0504 3.3214 100.426 2 134.734 2C151.377 2 163.193 14.6255 164.288 22.185C165.384 29.7444 167.979 51.189 141.793 54.519C115.607 57.849 46.7485 57.3025 33.3105 55.9108C19.8725 54.519 2.03711 51.4509 2.03711 29.7444C2.03711 8.03787 18.3975 2.6801 21.3337 2.6801" stroke="#E6C654" stroke-width="3" stroke-linecap="round" stroke-linejoin="round"/>
</svg>
