<svg width="167" height="59" viewBox="0 0 167 59" fill="none" xmlns="http://www.w3.org/2000/svg">
<rect x="5.54004" y="6" width="155" height="46" rx="23" fill="white"/>
<path d="M19.88 25H16.88V34.8H19.88V37H11.54V34.8H14.54V25H11.54V23H19.88V25ZM28.1271 26.64C29.7404 26.64 30.9071 27.0867 31.6271 27.98C32.3471 28.8733 32.7071 30.0533 32.7071 31.52V37H30.3671V32.32C30.3671 31.2667 30.2604 30.46 30.0471 29.9C29.8471 29.34 29.5671 28.9667 29.2071 28.78C28.8604 28.5933 28.4137 28.5 27.8671 28.5C27.0937 28.5 26.5004 28.8333 26.0871 29.5C25.6737 30.1533 25.4671 31.16 25.4671 32.52V37H23.1271V26.82H25.4671C25.4671 27.3 25.4471 27.6333 25.4071 27.82C25.3671 27.9933 25.2737 28.2533 25.1271 28.6L25.2671 28.66C25.5337 28.0733 25.9204 27.5933 26.4271 27.22C26.9337 26.8333 27.5004 26.64 28.1271 26.64ZM37.2741 33.56C37.8074 34.8133 38.6941 35.44 39.9341 35.44C40.8941 35.44 41.6008 35.34 42.0541 35.14C42.5208 34.9267 42.7541 34.6 42.7541 34.16C42.7541 33.76 42.5274 33.46 42.0741 33.26C41.6341 33.0467 40.8941 32.8933 39.8541 32.8C38.4541 32.68 37.3874 32.34 36.6541 31.78C35.9341 31.22 35.5741 30.54 35.5741 29.74C35.5741 29.1133 35.7808 28.5667 36.1941 28.1C36.6208 27.6333 37.1874 27.28 37.8941 27.04C38.6008 26.7867 39.3674 26.66 40.1941 26.66C41.2874 26.66 42.2408 26.9 43.0541 27.38C43.8674 27.8467 44.3741 28.44 44.5741 29.16L42.5341 29.88C42.3474 29.4133 42.0074 29.08 41.5141 28.88C41.0208 28.6667 40.5074 28.56 39.9741 28.56C39.4008 28.56 38.9141 28.6667 38.5141 28.88C38.1141 29.08 37.9141 29.36 37.9141 29.72C37.9141 30.12 38.1008 30.42 38.4741 30.62C38.8608 30.82 39.4674 30.9533 40.2941 31.02C41.8674 31.1533 43.0608 31.5067 43.8741 32.08C44.6874 32.64 45.0941 33.34 45.0941 34.18C45.0941 35.2067 44.6474 35.9933 43.7541 36.54C42.8608 37.0733 41.6608 37.34 40.1541 37.34C37.4608 37.34 35.7874 36.2667 35.1341 34.12L37.2741 33.56ZM52.3611 28.92V34.4C52.3611 34.6667 52.3811 34.8467 52.4211 34.94C52.4745 35.0333 52.5745 35.08 52.7211 35.08H56.2211V37H52.6611C51.9678 37 51.4345 36.9067 51.0611 36.72C50.6878 36.52 50.4345 36.2333 50.3011 35.86C50.1678 35.4867 50.1011 35 50.1011 34.4V28.92H47.9011V27H50.1011V23.92H52.3611V27H56.2211V28.92H52.3611ZM65.2682 26.44C65.9882 26.44 66.6548 26.6 67.2682 26.92C67.8948 27.24 68.3948 27.7 68.7682 28.3C69.1548 28.8867 69.3482 29.5733 69.3482 30.36L67.0682 30.68C67.0282 29.92 66.8015 29.34 66.3882 28.94C65.9882 28.54 65.4882 28.34 64.8882 28.34C64.0482 28.34 63.3815 28.62 62.8882 29.18C62.4082 29.74 62.1682 30.6867 62.1682 32.02V37.08H59.8282V26.84H62.1682C62.1682 27.2933 62.1482 27.6667 62.1082 27.96C62.0682 28.2533 62.0015 28.5467 61.9082 28.84L62.0282 28.9C62.3082 28.1933 62.7215 27.6067 63.2682 27.14C63.8148 26.6733 64.4815 26.44 65.2682 26.44ZM79.0752 37H81.4152H79.0752ZM81.4152 27V37H79.0752C79.0752 36.7067 79.1285 36.3733 79.2352 36C79.3552 35.6133 79.5085 35.2333 79.6952 34.86L79.5752 34.8C79.1885 35.52 78.7219 36.1 78.1752 36.54C77.6419 36.9667 76.9685 37.18 76.1552 37.18C74.7019 37.18 73.6152 36.78 72.8952 35.98C72.1885 35.18 71.8352 34.0867 71.8352 32.7V27H74.1752V32.3C74.1752 33.22 74.3152 33.9467 74.5952 34.48C74.8885 35.0133 75.3485 35.28 75.9752 35.28C78.0419 35.28 79.0752 33.88 79.0752 31.08V27H81.4152ZM92.0422 30.04C91.6022 29.5067 91.1956 29.1467 90.8222 28.96C90.4489 28.7733 89.9689 28.68 89.3822 28.68C88.8222 28.68 88.3089 28.8333 87.8422 29.14C87.3889 29.4467 87.0289 29.8533 86.7622 30.36C86.4956 30.8533 86.3622 31.3733 86.3622 31.92C86.3622 32.48 86.5022 33.0133 86.7822 33.52C87.0622 34.0133 87.4422 34.4133 87.9222 34.72C88.4022 35.0267 88.9222 35.18 89.4822 35.18C90.0822 35.18 90.6022 35.06 91.0422 34.82C91.4822 34.58 91.9222 34.24 92.3622 33.8L93.8222 35.14C93.4089 35.6867 92.7956 36.1667 91.9822 36.58C91.1822 36.98 90.3489 37.18 89.4822 37.18C88.5622 37.18 87.6822 36.9467 86.8422 36.48C86.0022 36 85.3222 35.36 84.8022 34.56C84.2822 33.7467 84.0222 32.8667 84.0222 31.92C84.0222 30.9733 84.2756 30.1 84.7822 29.3C85.2889 28.4867 85.9556 27.8467 86.7822 27.38C87.6089 26.9 88.4756 26.6667 89.3822 26.68C90.2622 26.6933 91.0756 26.88 91.8222 27.24C92.5822 27.6 93.1889 28.1333 93.6422 28.84L92.0422 30.04ZM101.189 28.92V34.4C101.189 34.6667 101.209 34.8467 101.249 34.94C101.303 35.0333 101.403 35.08 101.549 35.08H105.049V37H101.489C100.796 37 100.263 36.9067 99.8893 36.72C99.5159 36.52 99.2626 36.2333 99.1293 35.86C98.9959 35.4867 98.9293 35 98.9293 34.4V28.92H96.7293V27H98.9293V23.92H101.189V27H105.049V28.92H101.189ZM113.216 25.1C112.79 25.1 112.423 24.9467 112.116 24.64C111.81 24.3333 111.656 23.9667 111.656 23.54C111.656 23.1133 111.81 22.7533 112.116 22.46C112.423 22.1533 112.79 22 113.216 22C113.643 22 114.003 22.1533 114.296 22.46C114.603 22.7533 114.756 23.1133 114.756 23.54C114.756 23.9667 114.603 24.3333 114.296 24.64C114.003 24.9467 113.643 25.1 113.216 25.1ZM118.016 35V37H108.596V35H112.076V28.92H108.916V27H113.056C113.47 27 113.77 27.0467 113.956 27.14C114.156 27.22 114.283 27.3467 114.336 27.52C114.39 27.6933 114.416 27.94 114.416 28.26V35H118.016ZM125.603 37.18C124.643 37.18 123.77 36.9467 122.983 36.48C122.21 36.0133 121.597 35.38 121.143 34.58C120.703 33.7667 120.483 32.88 120.483 31.92C120.483 30.96 120.703 30.08 121.143 29.28C121.597 28.48 122.21 27.8467 122.983 27.38C123.77 26.9133 124.643 26.68 125.603 26.68C126.55 26.68 127.41 26.9133 128.183 27.38C128.97 27.8467 129.583 28.48 130.023 29.28C130.477 30.08 130.703 30.96 130.703 31.92C130.703 32.88 130.477 33.7667 130.023 34.58C129.583 35.38 128.97 36.0133 128.183 36.48C127.41 36.9467 126.55 37.18 125.603 37.18ZM125.603 35.14C126.15 35.14 126.637 35 127.063 34.72C127.49 34.4267 127.817 34.0333 128.043 33.54C128.283 33.0467 128.403 32.5067 128.403 31.92C128.403 31.3333 128.283 30.8 128.043 30.32C127.817 29.8267 127.49 29.44 127.063 29.16C126.637 28.8667 126.15 28.72 125.603 28.72C125.057 28.72 124.563 28.8667 124.123 29.16C123.697 29.44 123.363 29.8267 123.123 30.32C122.897 30.8 122.783 31.3333 122.783 31.92C122.783 32.5067 122.897 33.0467 123.123 33.54C123.363 34.0333 123.697 34.4267 124.123 34.72C124.563 35 125.057 35.14 125.603 35.14ZM137.99 26.64C139.604 26.64 140.77 27.0867 141.49 27.98C142.21 28.8733 142.57 30.0533 142.57 31.52V37H140.23V32.32C140.23 31.2667 140.124 30.46 139.91 29.9C139.71 29.34 139.43 28.9667 139.07 28.78C138.724 28.5933 138.277 28.5 137.73 28.5C136.957 28.5 136.364 28.8333 135.95 29.5C135.537 30.1533 135.33 31.16 135.33 32.52V37H132.99V26.82H135.33C135.33 27.3 135.31 27.6333 135.27 27.82C135.23 27.9933 135.137 28.2533 134.99 28.6L135.13 28.66C135.397 28.0733 135.784 27.5933 136.29 27.22C136.797 26.8333 137.364 26.64 137.99 26.64ZM147.137 33.56C147.671 34.8133 148.557 35.44 149.797 35.44C150.757 35.44 151.464 35.34 151.917 35.14C152.384 34.9267 152.617 34.6 152.617 34.16C152.617 33.76 152.391 33.46 151.937 33.26C151.497 33.0467 150.757 32.8933 149.717 32.8C148.317 32.68 147.251 32.34 146.517 31.78C145.797 31.22 145.437 30.54 145.437 29.74C145.437 29.1133 145.644 28.5667 146.057 28.1C146.484 27.6333 147.051 27.28 147.757 27.04C148.464 26.7867 149.231 26.66 150.057 26.66C151.151 26.66 152.104 26.9 152.917 27.38C153.731 27.8467 154.237 28.44 154.437 29.16L152.397 29.88C152.211 29.4133 151.871 29.08 151.377 28.88C150.884 28.6667 150.371 28.56 149.837 28.56C149.264 28.56 148.777 28.6667 148.377 28.88C147.977 29.08 147.777 29.36 147.777 29.72C147.777 30.12 147.964 30.42 148.337 30.62C148.724 30.82 149.331 30.9533 150.157 31.02C151.731 31.1533 152.924 31.5067 153.737 32.08C154.551 32.64 154.957 33.34 154.957 34.18C154.957 35.2067 154.511 35.9933 153.617 36.54C152.724 37.0733 151.524 37.34 150.017 37.34C147.324 37.34 145.651 36.2667 144.997 34.12L147.137 33.56Z" fill="black"/>
<path d="M31.7576 2C66.0504 3.3214 100.426 2 134.734 2C151.377 2 163.193 14.6255 164.288 22.185C165.384 29.7444 167.979 51.189 141.793 54.519C115.607 57.849 46.7485 57.3025 33.3105 55.9108C19.8725 54.519 2.03711 51.4509 2.03711 29.7444C2.03711 8.03787 18.3975 2.6801 21.3337 2.6801" stroke="#E6C654" stroke-width="3" stroke-linecap="round" stroke-linejoin="round"/>
</svg>
