<svg width="256" height="54" viewBox="0 0 256 54" fill="none" xmlns="http://www.w3.org/2000/svg">
<rect width="256" height="54" rx="5" fill="#F6F5EE"/>
<path d="M39.3333 16.5H38.1667C37.4667 16.5 37 16.9667 37 17.6667C37 18.3667 37.4667 18.8333 38.1667 18.8333H39.3333C40.6167 18.8333 41.6667 19.8833 41.6667 21.1667V22.45C41.6667 23.15 42.1333 23.6167 42.8333 23.6167C43.5333 23.6167 44 23.15 44 22.45V21.1667C44 18.6 41.9 16.5 39.3333 16.5ZM42.8333 30.5C42.1333 30.5 41.6667 30.9667 41.6667 31.6667V32.8333C41.6667 34.1167 40.6167 35.1667 39.3333 35.1667H38.1667C37.4667 35.1667 37 35.6333 37 36.3333C37 37.0333 37.4667 37.5 38.1667 37.5H39.3333C41.9 37.5 44 35.4 44 32.8333V31.6667C44 30.9667 43.5333 30.5 42.8333 30.5ZM28.8333 35.1667H27.6667C26.3833 35.1667 25.3333 34.1167 25.3333 32.8333V31.6667C25.3333 30.9667 24.8667 30.5 24.1667 30.5C23.4667 30.5 23 30.9667 23 31.6667V32.8333C23 35.4 25.1 37.5 27.6667 37.5H28.8333C29.5333 37.5 30 37.0333 30 36.3333C30 35.6333 29.5333 35.1667 28.8333 35.1667ZM24.1667 23.5C24.8667 23.5 25.3333 23.0333 25.3333 22.3333V21.1667C25.3333 19.8833 26.3833 18.8333 27.6667 18.8333H28.8333C29.5333 18.8333 30 18.3667 30 17.6667C30 16.9667 29.5333 16.5 28.8333 16.5H27.6667C25.1 16.5 23 18.6 23 21.1667V22.3333C23 22.9167 23.4667 23.5 24.1667 23.5ZM42.8333 25.8333H24.1667C23.4667 25.8333 23 26.3 23 27C23 27.7 23.4667 28.1667 24.1667 28.1667H42.8333C43.5333 28.1667 44 27.7 44 27C44 26.3 43.5333 25.8333 42.8333 25.8333Z" fill="black"/>
<path d="M55.58 30.78C55.86 31.5933 56.3 32.2067 56.9 32.62C57.5133 33.02 58.1733 33.22 58.88 33.22C59.5067 33.22 60.0533 33.0733 60.52 32.78C60.9867 32.4867 61.22 32.0667 61.22 31.52C61.22 31.1467 61.12 30.84 60.92 30.6C60.72 30.36 60.44 30.1467 60.08 29.96C59.7333 29.76 59.12 29.4533 58.24 29.04C57.1733 28.5467 56.3533 28.1 55.78 27.7C55.2067 27.2867 54.7933 26.86 54.54 26.42C54.2867 25.9667 54.16 25.4267 54.16 24.8C54.16 24.0133 54.34 23.32 54.7 22.72C55.0733 22.12 55.6 21.6533 56.28 21.32C56.96 20.9733 57.76 20.8 58.68 20.8C59.5067 20.8 60.24 20.9533 60.88 21.26C61.52 21.5667 62.0333 21.9667 62.42 22.46C62.82 22.94 63.0933 23.44 63.24 23.96L61.26 24.56C61.0867 24 60.8 23.5667 60.4 23.26C60 22.9533 59.4267 22.8 58.68 22.8C57.96 22.8 57.42 23.0067 57.06 23.42C56.7 23.82 56.52 24.2733 56.52 24.78C56.52 25.18 56.6 25.5133 56.76 25.78C56.92 26.0333 57.1467 26.2533 57.44 26.44C57.7467 26.6133 58.18 26.8133 58.74 27.04C59.9533 27.5333 60.8867 27.9667 61.54 28.34C62.2067 28.7133 62.7067 29.14 63.04 29.62C63.3733 30.0867 63.54 30.66 63.54 31.34C63.54 32.0867 63.3333 32.76 62.92 33.36C62.5067 33.9467 61.9267 34.4067 61.18 34.74C60.4333 35.0733 59.5733 35.24 58.6 35.24C57.7333 35.24 56.9533 35.0533 56.26 34.68C55.5667 34.3067 54.9933 33.8133 54.54 33.2C54.0867 32.5867 53.7667 31.9267 53.58 31.22L55.58 30.78ZM73.967 28.04C73.527 27.5067 73.1204 27.1467 72.747 26.96C72.3737 26.7733 71.8937 26.68 71.307 26.68C70.747 26.68 70.2337 26.8333 69.767 27.14C69.3137 27.4467 68.9537 27.8533 68.687 28.36C68.4204 28.8533 68.287 29.3733 68.287 29.92C68.287 30.48 68.427 31.0133 68.707 31.52C68.987 32.0133 69.367 32.4133 69.847 32.72C70.327 33.0267 70.847 33.18 71.407 33.18C72.007 33.18 72.527 33.06 72.967 32.82C73.407 32.58 73.847 32.24 74.287 31.8L75.747 33.14C75.3337 33.6867 74.7204 34.1667 73.907 34.58C73.107 34.98 72.2737 35.18 71.407 35.18C70.487 35.18 69.607 34.9467 68.767 34.48C67.927 34 67.247 33.36 66.727 32.56C66.207 31.7467 65.947 30.8667 65.947 29.92C65.947 28.9733 66.2004 28.1 66.707 27.3C67.2137 26.4867 67.8804 25.8467 68.707 25.38C69.5337 24.9 70.4004 24.6667 71.307 24.68C72.187 24.6933 73.0004 24.88 73.747 25.24C74.507 25.6 75.1137 26.1333 75.567 26.84L73.967 28.04ZM82.5341 24.6C83.4807 24.6 84.3541 24.78 85.1541 25.14C85.9541 25.4867 86.5941 26.0067 87.0741 26.7C87.5541 27.38 87.7941 28.1933 87.7941 29.14V34.96H85.4541C85.4674 34.48 85.5274 34.0467 85.6341 33.66C85.7541 33.2733 85.8274 33.04 85.8541 32.96L85.7741 32.92C85.5741 33.6267 85.2007 34.1867 84.6541 34.6C84.1074 35 83.3007 35.2 82.2341 35.2C80.9274 35.2 79.9074 34.88 79.1741 34.24C78.4541 33.5867 78.0941 32.7333 78.0941 31.68C78.0941 30.4267 78.4274 29.5333 79.0941 29C79.7607 28.4533 80.8274 28.18 82.2941 28.18C83.1741 28.18 83.9007 28.3733 84.4741 28.76C85.0607 29.1467 85.4807 29.7 85.7341 30.42L85.8341 30.38C85.8074 30.3133 85.7541 30.1933 85.6741 30.02C85.6074 29.8333 85.5541 29.6533 85.5141 29.48C85.4741 29.2933 85.4541 29.1133 85.4541 28.94C85.4541 28.02 85.1874 27.3867 84.6541 27.04C84.1207 26.68 83.4074 26.5 82.5141 26.5C81.9541 26.5 81.4874 26.5933 81.1141 26.78C80.7541 26.9667 80.4541 27.2467 80.2141 27.62L78.5141 26.48C78.7941 25.8933 79.2474 25.4333 79.8741 25.1C80.5141 24.7667 81.4007 24.6 82.5341 24.6ZM82.5741 33.4C84.4407 33.4 85.4007 32.82 85.4541 31.66C85.4407 31.1667 85.2274 30.7667 84.8141 30.46C84.4141 30.14 83.6341 29.98 82.4741 29.98C81.8207 29.98 81.3141 30.1467 80.9541 30.48C80.6074 30.8 80.4341 31.2133 80.4341 31.72C80.4341 32.2267 80.6141 32.6333 80.9741 32.94C81.3474 33.2467 81.8807 33.4 82.5741 33.4ZM95.5011 24.64C97.1144 24.64 98.2811 25.0867 99.0011 25.98C99.7211 26.8733 100.081 28.0533 100.081 29.52V35H97.7411V30.32C97.7411 29.2667 97.6344 28.46 97.4211 27.9C97.2211 27.34 96.9411 26.9667 96.5811 26.78C96.2344 26.5933 95.7878 26.5 95.2411 26.5C94.4678 26.5 93.8744 26.8333 93.4611 27.5C93.0478 28.1533 92.8411 29.16 92.8411 30.52V35H90.5011V24.82H92.8411C92.8411 25.3 92.8211 25.6333 92.7811 25.82C92.7411 25.9933 92.6478 26.2533 92.5011 26.6L92.6411 26.66C92.9078 26.0733 93.2944 25.5933 93.8011 25.22C94.3078 24.8333 94.8744 24.64 95.5011 24.64ZM119.735 26.92V32.4C119.735 32.6667 119.755 32.8467 119.795 32.94C119.848 33.0333 119.948 33.08 120.095 33.08H123.595V35H120.035C119.342 35 118.808 34.9067 118.435 34.72C118.062 34.52 117.808 34.2333 117.675 33.86C117.542 33.4867 117.475 33 117.475 32.4V26.92H115.275V25H117.475V21.92H119.735V25H123.595V26.92H119.735ZM131.942 35.18C130.982 35.18 130.109 34.9467 129.322 34.48C128.549 34.0133 127.936 33.38 127.482 32.58C127.042 31.7667 126.822 30.88 126.822 29.92C126.822 28.96 127.042 28.08 127.482 27.28C127.936 26.48 128.549 25.8467 129.322 25.38C130.109 24.9133 130.982 24.68 131.942 24.68C132.889 24.68 133.749 24.9133 134.522 25.38C135.309 25.8467 135.922 26.48 136.362 27.28C136.816 28.08 137.042 28.96 137.042 29.92C137.042 30.88 136.816 31.7667 136.362 32.58C135.922 33.38 135.309 34.0133 134.522 34.48C133.749 34.9467 132.889 35.18 131.942 35.18ZM131.942 33.14C132.489 33.14 132.976 33 133.402 32.72C133.829 32.4267 134.156 32.0333 134.382 31.54C134.622 31.0467 134.742 30.5067 134.742 29.92C134.742 29.3333 134.622 28.8 134.382 28.32C134.156 27.8267 133.829 27.44 133.402 27.16C132.976 26.8667 132.489 26.72 131.942 26.72C131.396 26.72 130.902 26.8667 130.462 27.16C130.036 27.44 129.702 27.8267 129.462 28.32C129.236 28.8 129.122 29.3333 129.122 29.92C129.122 30.5067 129.236 31.0467 129.462 31.54C129.702 32.0333 130.036 32.4267 130.462 32.72C130.902 33 131.396 33.14 131.942 33.14ZM155.396 28.86H153.516V35H151.176V21H155.956C157.81 21 159.116 21.3933 159.876 22.18C160.65 22.9667 161.036 23.8867 161.036 24.94C161.036 25.9 160.776 26.72 160.256 27.4C159.736 28.08 158.916 28.5267 157.796 28.74L161.376 35H158.956L155.396 28.86ZM153.516 26.92H156.356C157.13 26.92 157.71 26.7533 158.096 26.42C158.496 26.0867 158.696 25.6067 158.696 24.98C158.696 23.66 157.783 23 155.956 23H153.516V26.92ZM168.383 24.68C169.317 24.68 170.177 24.9133 170.963 25.38C171.763 25.8467 172.397 26.4867 172.863 27.3C173.33 28.1 173.563 28.9733 173.563 29.92V30.62H165.583C165.717 31.3933 166.063 32.0133 166.623 32.48C167.183 32.9467 167.81 33.18 168.503 33.18C169.69 33.18 170.523 32.6933 171.003 31.72L172.963 32.5C172.79 32.9267 172.503 33.3467 172.103 33.76C171.703 34.1733 171.197 34.5133 170.583 34.78C169.97 35.0467 169.277 35.18 168.503 35.18C167.61 35.18 166.75 34.9467 165.923 34.48C165.097 34 164.43 33.36 163.923 32.56C163.43 31.7467 163.183 30.8667 163.183 29.92C163.183 28.9733 163.423 28.1 163.903 27.3C164.397 26.5 165.043 25.8667 165.843 25.4C166.643 24.92 167.49 24.68 168.383 24.68ZM168.383 26.68C167.73 26.68 167.157 26.88 166.663 27.28C166.183 27.68 165.85 28.2067 165.663 28.86H171.143C170.85 27.4067 169.93 26.68 168.383 26.68ZM183.83 28.04C183.39 27.5067 182.984 27.1467 182.61 26.96C182.237 26.7733 181.757 26.68 181.17 26.68C180.61 26.68 180.097 26.8333 179.63 27.14C179.177 27.4467 178.817 27.8533 178.55 28.36C178.284 28.8533 178.15 29.3733 178.15 29.92C178.15 30.48 178.29 31.0133 178.57 31.52C178.85 32.0133 179.23 32.4133 179.71 32.72C180.19 33.0267 180.71 33.18 181.27 33.18C181.87 33.18 182.39 33.06 182.83 32.82C183.27 32.58 183.71 32.24 184.15 31.8L185.61 33.14C185.197 33.6867 184.584 34.1667 183.77 34.58C182.97 34.98 182.137 35.18 181.27 35.18C180.35 35.18 179.47 34.9467 178.63 34.48C177.79 34 177.11 33.36 176.59 32.56C176.07 31.7467 175.81 30.8667 175.81 29.92C175.81 28.9733 176.064 28.1 176.57 27.3C177.077 26.4867 177.744 25.8467 178.57 25.38C179.397 24.9 180.264 24.6667 181.17 24.68C182.05 24.6933 182.864 24.88 183.61 25.24C184.37 25.6 184.977 26.1333 185.43 26.84L183.83 28.04ZM197.597 25V36.6C197.597 37.3733 197.384 37.96 196.957 38.36C196.531 38.7733 195.851 38.98 194.917 38.98H189.397V37.08L194.917 37.1C195.091 37.1 195.204 37.06 195.257 36.98C195.324 36.9 195.357 36.7733 195.357 36.6V35C195.357 34.36 195.424 33.84 195.557 33.44C195.691 33.04 195.764 32.8067 195.777 32.74L195.577 32.68C195.351 33.4133 194.971 34.0133 194.437 34.48C193.917 34.9467 193.224 35.18 192.357 35.18C190.971 35.18 189.897 34.7733 189.137 33.96C188.391 33.1467 188.017 32.06 188.017 30.7V25H190.217V30C190.217 31.1067 190.411 31.9333 190.797 32.48C191.197 33.0267 191.797 33.3 192.597 33.3C193.171 33.3 193.664 33.1333 194.077 32.8C194.504 32.4533 194.824 32.0133 195.037 31.48C195.251 30.9333 195.357 30.3667 195.357 29.78V25H197.597ZM208.244 28.04C207.804 27.5067 207.398 27.1467 207.024 26.96C206.651 26.7733 206.171 26.68 205.584 26.68C205.024 26.68 204.511 26.8333 204.044 27.14C203.591 27.4467 203.231 27.8533 202.964 28.36C202.698 28.8533 202.564 29.3733 202.564 29.92C202.564 30.48 202.704 31.0133 202.984 31.52C203.264 32.0133 203.644 32.4133 204.124 32.72C204.604 33.0267 205.124 33.18 205.684 33.18C206.284 33.18 206.804 33.06 207.244 32.82C207.684 32.58 208.124 32.24 208.564 31.8L210.024 33.14C209.611 33.6867 208.998 34.1667 208.184 34.58C207.384 34.98 206.551 35.18 205.684 35.18C204.764 35.18 203.884 34.9467 203.044 34.48C202.204 34 201.524 33.36 201.004 32.56C200.484 31.7467 200.224 30.8667 200.224 29.92C200.224 28.9733 200.478 28.1 200.984 27.3C201.491 26.4867 202.158 25.8467 202.984 25.38C203.811 24.9 204.678 24.6667 205.584 24.68C206.464 24.6933 207.278 24.88 208.024 25.24C208.784 25.6 209.391 26.1333 209.844 26.84L208.244 28.04ZM221.871 33.02V35H218.611C217.571 35 216.798 34.7533 216.291 34.26C215.798 33.7533 215.551 33.0667 215.551 32.2V22.68C215.551 22.4133 215.525 22.2333 215.471 22.14C215.431 22.0467 215.338 22 215.191 22H212.471V20H215.251C215.945 20 216.478 20.0667 216.851 20.2C217.238 20.3333 217.511 20.56 217.671 20.88C217.831 21.2 217.911 21.64 217.911 22.2V31.74C217.911 32.1667 217.985 32.4867 218.131 32.7C218.291 32.9133 218.538 33.02 218.871 33.02H221.871ZM229.418 24.68C230.352 24.68 231.212 24.9133 231.998 25.38C232.798 25.8467 233.432 26.4867 233.898 27.3C234.365 28.1 234.598 28.9733 234.598 29.92V30.62H226.618C226.752 31.3933 227.098 32.0133 227.658 32.48C228.218 32.9467 228.845 33.18 229.538 33.18C230.725 33.18 231.558 32.6933 232.038 31.72L233.998 32.5C233.825 32.9267 233.538 33.3467 233.138 33.76C232.738 34.1733 232.232 34.5133 231.618 34.78C231.005 35.0467 230.312 35.18 229.538 35.18C228.645 35.18 227.785 34.9467 226.958 34.48C226.132 34 225.465 33.36 224.958 32.56C224.465 31.7467 224.218 30.8667 224.218 29.92C224.218 28.9733 224.458 28.1 224.938 27.3C225.432 26.5 226.078 25.8667 226.878 25.4C227.678 24.92 228.525 24.68 229.418 24.68ZM229.418 26.68C228.765 26.68 228.192 26.88 227.698 27.28C227.218 27.68 226.885 28.2067 226.698 28.86H232.178C231.885 27.4067 230.965 26.68 229.418 26.68Z" fill="black"/>
<path d="M10.4537 47.0325C10.4527 33.5849 6.33462 20.2511 8.26499 6.793C9.54671 6.77221 10.8374 6.76571 12.1185 6.74121C89.4725 5.27339 166.939 7.93929 244.096 6.73262C248.914 19.7715 249.284 33.8741 246.531 46.9767C172.754 48.6602 98.2607 46.8552 24.3667 47.3804" stroke="#E6C654" stroke-width="2" stroke-linecap="round" stroke-linejoin="round"/>
</svg>
